<?xml version="1.0" encoding="utf-8"?>
<!-- Generator: Adobe Illustrator 15.0.0, SVG Export Plug-In . SVG Version: 6.00 Build 0)  -->
<!DOCTYPE svg PUBLIC "-//W3C//DTD SVG 1.1//EN" "http://www.w3.org/Graphics/SVG/1.1/DTD/svg11.dtd">
<svg version="1.1" xmlns="http://www.w3.org/2000/svg" xmlns:xlink="http://www.w3.org/1999/xlink" x="0px" y="0px" width="420px"
	 height="320px" viewBox="0 0 420 320" enable-background="new 0 0 420 320" xml:space="preserve">
<g id="Layer_1" display="none">
	<g display="inline">
		<g>
			<g>
				<defs>
					<rect id="SVGID_1_" x="149.75" y="72.154" width="124.279" height="235.046"/>
				</defs>
				<clipPath id="SVGID_2_">
					<use xlink:href="#SVGID_1_"  overflow="visible"/>
				</clipPath>
				<g clip-path="url(#SVGID_2_)">
					<g>
						<defs>
							<rect id="SVGID_3_" x="149.75" y="72.154" width="124.279" height="235.046"/>
						</defs>
						<clipPath id="SVGID_4_">
							<use xlink:href="#SVGID_3_"  overflow="visible"/>
						</clipPath>
						<g clip-path="url(#SVGID_4_)">
							<g>
								<defs>
									<rect id="SVGID_5_" x="149.75" y="72.154" width="124.279" height="235.046"/>
								</defs>
								<defs>
									<rect id="SVGID_6_" x="149.75" y="72.154" width="124.279" height="235.046"/>
								</defs>
								<defs>
									<rect id="SVGID_7_" x="149.75" y="72.154" width="124.279" height="235.046"/>
								</defs>
								<defs>
									<rect id="SVGID_8_" x="149.75" y="72.154" width="124.279" height="235.046"/>
								</defs>
								<defs>
									<rect id="SVGID_9_" x="149.75" y="72.154" width="124.279" height="235.046"/>
								</defs>
								<defs>
									<rect id="SVGID_10_" x="149.75" y="72.154" width="124.279" height="235.046"/>
								</defs>
								<defs>
									<rect id="SVGID_11_" x="149.75" y="72.154" width="124.279" height="235.046"/>
								</defs>
								<defs>
									<rect id="SVGID_12_" x="149.75" y="72.154" width="124.279" height="235.046"/>
								</defs>
								<defs>
									<rect id="SVGID_13_" x="149.75" y="72.154" width="124.279" height="235.046"/>
								</defs>
								<defs>
									<rect id="SVGID_14_" x="149.75" y="72.154" width="124.279" height="235.046"/>
								</defs>
								<defs>
									<rect id="SVGID_15_" x="149.75" y="72.154" width="124.279" height="235.046"/>
								</defs>
								<defs>
									<rect id="SVGID_16_" x="149.75" y="72.154" width="124.279" height="235.046"/>
								</defs>
								<defs>
									<rect id="SVGID_17_" x="149.75" y="72.154" width="124.279" height="235.046"/>
								</defs>
								<defs>
									<rect id="SVGID_18_" x="149.75" y="72.154" width="124.279" height="235.046"/>
								</defs>
								<defs>
									<rect id="SVGID_19_" x="149.75" y="72.154" width="124.279" height="235.046"/>
								</defs>
								<defs>
									<rect id="SVGID_20_" x="149.75" y="72.154" width="124.279" height="235.046"/>
								</defs>
								<defs>
									<rect id="SVGID_21_" x="149.75" y="72.154" width="124.279" height="235.046"/>
								</defs>
								<defs>
									<rect id="SVGID_22_" x="149.75" y="72.154" width="124.279" height="235.046"/>
								</defs>
								<defs>
									<rect id="SVGID_23_" x="149.75" y="72.154" width="124.279" height="235.046"/>
								</defs>
								<defs>
									<rect id="SVGID_24_" x="149.75" y="72.154" width="124.279" height="235.046"/>
								</defs>
								<defs>
									<rect id="SVGID_25_" x="149.75" y="72.154" width="124.279" height="235.046"/>
								</defs>
								<defs>
									<rect id="SVGID_26_" x="149.75" y="72.154" width="124.279" height="235.046"/>
								</defs>
								<defs>
									<rect id="SVGID_27_" x="149.75" y="72.154" width="124.279" height="235.046"/>
								</defs>
								<defs>
									<rect id="SVGID_28_" x="149.75" y="72.154" width="124.279" height="235.046"/>
								</defs>
								<defs>
									<rect id="SVGID_29_" x="149.75" y="72.154" width="124.279" height="235.046"/>
								</defs>
								<defs>
									<rect id="SVGID_30_" x="149.75" y="72.154" width="124.279" height="235.046"/>
								</defs>
								<defs>
									<rect id="SVGID_31_" x="149.75" y="72.154" width="124.279" height="235.046"/>
								</defs>
								<defs>
									<rect id="SVGID_32_" x="149.75" y="72.154" width="124.279" height="235.046"/>
								</defs>
								<defs>
									<rect id="SVGID_33_" x="149.75" y="72.154" width="124.279" height="235.046"/>
								</defs>
								<defs>
									<rect id="SVGID_34_" x="149.75" y="72.154" width="124.279" height="235.046"/>
								</defs>
								<defs>
									<rect id="SVGID_35_" x="149.75" y="72.154" width="124.279" height="235.046"/>
								</defs>
								<defs>
									<rect id="SVGID_36_" x="149.75" y="72.154" width="124.279" height="235.046"/>
								</defs>
								<defs>
									<rect id="SVGID_37_" x="149.75" y="72.154" width="124.279" height="235.046"/>
								</defs>
								<defs>
									<rect id="SVGID_38_" x="149.75" y="72.154" width="124.279" height="235.046"/>
								</defs>
								<defs>
									<rect id="SVGID_39_" x="149.75" y="72.154" width="124.279" height="235.046"/>
								</defs>
								<defs>
									<rect id="SVGID_40_" x="149.75" y="72.154" width="124.279" height="235.046"/>
								</defs>
								<defs>
									<rect id="SVGID_41_" x="149.75" y="72.154" width="124.279" height="235.046"/>
								</defs>
								<defs>
									<rect id="SVGID_42_" x="149.75" y="72.154" width="124.279" height="235.046"/>
								</defs>
								<defs>
									<rect id="SVGID_43_" x="149.75" y="72.154" width="124.279" height="235.046"/>
								</defs>
								<clipPath id="SVGID_44_">
									<use xlink:href="#SVGID_5_"  overflow="visible"/>
								</clipPath>
								<clipPath id="SVGID_45_" clip-path="url(#SVGID_44_)">
									<use xlink:href="#SVGID_6_"  overflow="visible"/>
								</clipPath>
								<clipPath id="SVGID_46_" clip-path="url(#SVGID_45_)">
									<use xlink:href="#SVGID_7_"  overflow="visible"/>
								</clipPath>
								<clipPath id="SVGID_47_" clip-path="url(#SVGID_46_)">
									<use xlink:href="#SVGID_8_"  overflow="visible"/>
								</clipPath>
								<clipPath id="SVGID_48_" clip-path="url(#SVGID_47_)">
									<use xlink:href="#SVGID_9_"  overflow="visible"/>
								</clipPath>
								<clipPath id="SVGID_49_" clip-path="url(#SVGID_48_)">
									<use xlink:href="#SVGID_10_"  overflow="visible"/>
								</clipPath>
								<clipPath id="SVGID_50_" clip-path="url(#SVGID_49_)">
									<use xlink:href="#SVGID_11_"  overflow="visible"/>
								</clipPath>
								<clipPath id="SVGID_51_" clip-path="url(#SVGID_50_)">
									<use xlink:href="#SVGID_12_"  overflow="visible"/>
								</clipPath>
								<clipPath id="SVGID_52_" clip-path="url(#SVGID_51_)">
									<use xlink:href="#SVGID_13_"  overflow="visible"/>
								</clipPath>
								<clipPath id="SVGID_53_" clip-path="url(#SVGID_52_)">
									<use xlink:href="#SVGID_14_"  overflow="visible"/>
								</clipPath>
								<clipPath id="SVGID_54_" clip-path="url(#SVGID_53_)">
									<use xlink:href="#SVGID_15_"  overflow="visible"/>
								</clipPath>
								<clipPath id="SVGID_55_" clip-path="url(#SVGID_54_)">
									<use xlink:href="#SVGID_16_"  overflow="visible"/>
								</clipPath>
								<clipPath id="SVGID_56_" clip-path="url(#SVGID_55_)">
									<use xlink:href="#SVGID_17_"  overflow="visible"/>
								</clipPath>
								<clipPath id="SVGID_57_" clip-path="url(#SVGID_56_)">
									<use xlink:href="#SVGID_18_"  overflow="visible"/>
								</clipPath>
								<clipPath id="SVGID_58_" clip-path="url(#SVGID_57_)">
									<use xlink:href="#SVGID_19_"  overflow="visible"/>
								</clipPath>
								<clipPath id="SVGID_59_" clip-path="url(#SVGID_58_)">
									<use xlink:href="#SVGID_20_"  overflow="visible"/>
								</clipPath>
								<clipPath id="SVGID_60_" clip-path="url(#SVGID_59_)">
									<use xlink:href="#SVGID_21_"  overflow="visible"/>
								</clipPath>
								<clipPath id="SVGID_61_" clip-path="url(#SVGID_60_)">
									<use xlink:href="#SVGID_22_"  overflow="visible"/>
								</clipPath>
								<clipPath id="SVGID_62_" clip-path="url(#SVGID_61_)">
									<use xlink:href="#SVGID_23_"  overflow="visible"/>
								</clipPath>
								<clipPath id="SVGID_63_" clip-path="url(#SVGID_62_)">
									<use xlink:href="#SVGID_24_"  overflow="visible"/>
								</clipPath>
								<clipPath id="SVGID_64_" clip-path="url(#SVGID_63_)">
									<use xlink:href="#SVGID_25_"  overflow="visible"/>
								</clipPath>
								<clipPath id="SVGID_65_" clip-path="url(#SVGID_64_)">
									<use xlink:href="#SVGID_26_"  overflow="visible"/>
								</clipPath>
								<clipPath id="SVGID_66_" clip-path="url(#SVGID_65_)">
									<use xlink:href="#SVGID_27_"  overflow="visible"/>
								</clipPath>
								<clipPath id="SVGID_67_" clip-path="url(#SVGID_66_)">
									<use xlink:href="#SVGID_28_"  overflow="visible"/>
								</clipPath>
								<clipPath id="SVGID_68_" clip-path="url(#SVGID_67_)">
									<use xlink:href="#SVGID_29_"  overflow="visible"/>
								</clipPath>
								<clipPath id="SVGID_69_" clip-path="url(#SVGID_68_)">
									<use xlink:href="#SVGID_30_"  overflow="visible"/>
								</clipPath>
								<clipPath id="SVGID_70_" clip-path="url(#SVGID_69_)">
									<use xlink:href="#SVGID_31_"  overflow="visible"/>
								</clipPath>
								<clipPath id="SVGID_71_" clip-path="url(#SVGID_70_)">
									<use xlink:href="#SVGID_32_"  overflow="visible"/>
								</clipPath>
								<clipPath id="SVGID_72_" clip-path="url(#SVGID_71_)">
									<use xlink:href="#SVGID_33_"  overflow="visible"/>
								</clipPath>
								<clipPath id="SVGID_73_" clip-path="url(#SVGID_72_)">
									<use xlink:href="#SVGID_34_"  overflow="visible"/>
								</clipPath>
								<clipPath id="SVGID_74_" clip-path="url(#SVGID_73_)">
									<use xlink:href="#SVGID_35_"  overflow="visible"/>
								</clipPath>
								<clipPath id="SVGID_75_" clip-path="url(#SVGID_74_)">
									<use xlink:href="#SVGID_36_"  overflow="visible"/>
								</clipPath>
								<clipPath id="SVGID_76_" clip-path="url(#SVGID_75_)">
									<use xlink:href="#SVGID_37_"  overflow="visible"/>
								</clipPath>
								<clipPath id="SVGID_77_" clip-path="url(#SVGID_76_)">
									<use xlink:href="#SVGID_38_"  overflow="visible"/>
								</clipPath>
								<clipPath id="SVGID_78_" clip-path="url(#SVGID_77_)">
									<use xlink:href="#SVGID_39_"  overflow="visible"/>
								</clipPath>
								<clipPath id="SVGID_79_" clip-path="url(#SVGID_78_)">
									<use xlink:href="#SVGID_40_"  overflow="visible"/>
								</clipPath>
								<clipPath id="SVGID_80_" clip-path="url(#SVGID_79_)">
									<use xlink:href="#SVGID_41_"  overflow="visible"/>
								</clipPath>
								<clipPath id="SVGID_81_" clip-path="url(#SVGID_80_)">
									<use xlink:href="#SVGID_42_"  overflow="visible"/>
								</clipPath>
								<clipPath id="SVGID_82_" clip-path="url(#SVGID_81_)">
									<use xlink:href="#SVGID_43_"  overflow="visible"/>
								</clipPath>
								<path clip-path="url(#SVGID_82_)" fill="#FFFFFF" d="M252.282,285.471c0,6.146-5.565,11.131-12.431,11.131
									c-6.867,0-12.436-4.983-12.436-11.131c0-6.15,5.566-11.135,12.436-11.135C246.717,274.336,252.282,279.32,252.282,285.471"
									/>
								<path clip-path="url(#SVGID_82_)" fill="#F15B28" d="M243.725,160.031c0,4.139-3.367,7.494-7.522,7.494
									c-4.152,0-7.521-3.355-7.521-7.494c0-4.138,3.367-7.493,7.521-7.493C240.355,152.539,243.725,155.893,243.725,160.031"/>
								<path clip-path="url(#SVGID_82_)" fill="#F15B28" d="M201.295,164.221c0,3.354-2.732,6.076-6.1,6.076
									c-3.367,0-6.099-2.722-6.099-6.076c0-3.354,2.731-6.073,6.099-6.073C198.562,158.147,201.295,160.866,201.295,164.221"/>
								<path clip-path="url(#SVGID_82_)" fill="#F15B28" d="M202.557,152.908c0,0-9.255,4.61-10.096,6.704
									c-0.841,2.096,1.683,6.707,2.944,13.408c1.263,6.703-1.261,26.816-1.681,33.102c-0.347,5.171,15.393-8.799,18.084-8.799
									c5.889,0,19.349,12.988,18.086,5.863c-0.994-5.61,2.523-34.354,2.943-36.869c0.42-2.516,2.104-8.798,1.684-10.895
									c-0.422-2.094-11.356-6.286-13.459-6.286C218.959,149.137,202.557,152.908,202.557,152.908"/>
								<polygon clip-path="url(#SVGID_82_)" fill="#F15B28" points="237.254,166.316 245.877,182.236 251.344,181.398 
									241.25,160.031 								"/>
								<path clip-path="url(#SVGID_82_)" fill="#F15B28" d="M192.04,162.544l-8.832,16.343c0,0,6.309,1.258,6.309,3.352
									c0,2.097,7.149-17.18,7.149-17.18L192.04,162.544z"/>
								<path clip-path="url(#SVGID_82_)" fill="#F15B28" d="M182.259,180.148c0,0-3.952,5.652-5.36,8.793
									c-0.875,1.951-5.047,11.73-5.047,13.826c0,2.094-2.523,4.189,0,5.028c2.523,0.838,10.515,3.353,12.196,0.418
									c1.684-2.932,4.087-4.647,4.206-8.799c0.108-3.769,1.262-11.312,1.262-14.244c0-2.935-0.164-2.903-0.164-2.903
									L182.259,180.148z"/>
								<path clip-path="url(#SVGID_82_)" fill="#F15B28" d="M195.405,210.312c0,0,12.619-10.058,17.246-9.64
									c4.627,0.42,15.141,6.285,17.244,7.962c2.103,1.678,2.502,12.133,2.502,12.133l-14.342-0.347c0,0-6.484-3.78-7.749-1.269
									c-1.261,2.515-15.004,2.658-15.438,1.037C193.943,216.734,195.405,210.312,195.405,210.312"/>
								<polygon clip-path="url(#SVGID_82_)" fill="#F15B28" points="217.275,217.852 225.436,244.018 236.609,242.939 
									231.576,216.596 								"/>
								<polygon clip-path="url(#SVGID_82_)" fill="#F15B28" points="194.564,218.271 198.395,244.734 206.325,247.967 
									210.291,244.376 210.127,213.664 								"/>
								<path clip-path="url(#SVGID_82_)" fill="#F15B28" d="M225.074,249.764c0,0-0.375,9.287,0,15.803
									c0.365,6.398,0.107,35.768,0.107,35.768s4.197-19.434,13.971-21.988c8.386-2.188,16.481,6.125,16.481,6.125l-15.78-37.502
									c0,0-5.166,2.872-6.849,2.872C231.322,250.84,225.074,249.764,225.074,249.764"/>
								<path clip-path="url(#SVGID_82_)" fill="#F15B28" d="M226.049,291.926c0,0,7.569-10.056,17.244-10.475
									c9.673-0.419,17.471,4.201,23.973,9.636c5.485,4.589,7.025,8.908,6.73,10.058c-0.295,1.15-6.951,2.886-10.736,3.721
									c-3.783,0.84-19.967,2.982-27.117,2.146c-7.149-0.837-13.039-3.771-12.197-7.124
									C224.788,296.534,226.049,291.926,226.049,291.926"/>
								<path clip-path="url(#SVGID_82_)" fill="#FFFFFF" d="M227.789,167.129l-7.167,1.95c-1.168-2.657-2.964-4.911-5.172-6.558
									l-0.464,0.539c2.105,1.58,3.824,3.713,4.949,6.203l-20.719,5.639l0.22,2.395l21.638,1.956
									c-0.61,3.06-2.071,5.822-4.147,7.967l0.538,0.513c2.179-2.229,3.712-5.154,4.322-8.414l7.181,0.647l-0.285-3.11
									l-6.595-0.516c0.007-0.611-0.014-1.227-0.071-1.852c-0.076-0.821-0.213-1.623-0.396-2.402l6.47-1.702L227.789,167.129z
									 M221.391,176.284l-12.146-0.942l11.707-3.078c0.174,0.734,0.3,1.489,0.373,2.264
									C221.378,175.118,221.396,175.705,221.391,176.284"/>
								<path clip-path="url(#SVGID_82_)" fill="#F15B28" d="M196.23,275.264l-22.712,22.985c0,0-1.082,4.669,1.441,5.028
									c2.524,0.356,34.375-2.177,35.513-2.468c1.454-0.369,10.512-4.663,11.594-5.021c1.082-0.359,1.592-14.92-2.928-19.16
									c-4.521-4.242-17.139-6.755-17.139-6.755L196.23,275.264z"/>
								<path clip-path="url(#SVGID_82_)" fill="#FFFFFF" d="M197.982,251.466l-3.978,26.244c0,0,3.609-2.136,8.999-0.039
									c5.389,2.095,7.831,10.728,7.831,14.08s-1.799,9.458-1.799,9.458l6.796-2.489c0,0,1.399-11.663,2.259-15.206
									c0.672-2.77,2.465-5.246,2.465-5.246l-5.723-26.838l-7.609-2.836L197.982,251.466z"/>
								<path clip-path="url(#SVGID_82_)" fill="#F15B28" d="M198.034,250.84l-3.974,26.535c0,0,3.628-3.68,8.674-1.583
									c5.048,2.094,8.971,10.565,8.833,15.083c-0.101,3.352-2.438,10.327-2.438,10.327l6.572-2.595c0,0,0.96-12.998,1.756-15.694
									c1.026-3.474,1.683-6.283,1.683-6.283l-4.521-25.79l-7.93-2.872L198.034,250.84z"/>
								<path clip-path="url(#SVGID_82_)" fill="#F15B28" d="M190.681,181.861c0,2.687-2.188,4.865-4.884,4.865
									c-2.696,0-4.881-2.18-4.881-4.865c0-2.685,2.185-4.86,4.881-4.86C188.494,177.001,190.681,179.178,190.681,181.861"/>
								<path clip-path="url(#SVGID_82_)" fill="#F15B28" d="M253.575,181.648c0,2.646-2.153,4.791-4.812,4.791
									c-2.654,0-4.81-2.146-4.81-4.791s2.153-4.791,4.81-4.791C251.422,176.857,253.575,179.003,253.575,181.648"/>
								<path clip-path="url(#SVGID_82_)" fill="#F15B28" d="M246.109,183.58l0.144,24.604l5.024,4.147l6.894-1.146
									c0,0,1.201-1.035,2.442-4.289c1.238-3.256-5.256-22.25-7.612-24.605C252.423,180.891,246.109,183.58,246.109,183.58"/>
								<path clip-path="url(#SVGID_82_)" fill="#F15B28" d="M170.988,205.766l-5.03,14.401l9.43,8.767l9.43-5.009
									c0,0,4.283-8.646,1.141-8.646s-2.565,3.258-5.167,5.418c-3.262,2.707-4.198-1.541-7.34-2.17
									c-3.143-0.625,9.2-4.733,10.597-10.312C185.446,202.634,170.988,205.766,170.988,205.766"/>
								<path clip-path="url(#SVGID_82_)" fill="#F15B28" d="M181.98,206.844c0,0,0.479,15.584-0.962,16.245
									s-5.883,1.267-5.081-3.552c0.803-4.816,2.446-9.814,3.133-11.104C179.759,207.146,181.98,206.844,181.98,206.844"/>
								<path clip-path="url(#SVGID_82_)" fill="#F15B28" d="M242.02,244.891c0,4.967-4.602,8.994-10.275,8.994
									c-5.676,0-10.273-4.027-10.273-8.994c0-4.968,4.598-8.992,10.273-8.992C237.418,235.896,242.02,239.923,242.02,244.891"/>
								<path clip-path="url(#SVGID_82_)" fill="#F15B28" d="M216.061,247.211c0,5.074-4.763,9.188-10.636,9.188
									s-10.637-4.112-10.637-9.188c0-5.076,4.764-9.189,10.637-9.189S216.061,242.135,216.061,247.211"/>
								<path clip-path="url(#SVGID_82_)" fill="#FFFFFF" d="M236.488,144.961c0.656,2.564-9.523,7.367-22.738,10.727
									c-13.216,3.36-24.462,4.006-25.119,1.443c-0.657-2.563,9.523-7.367,22.738-10.727
									C224.586,143.043,235.832,142.398,236.488,144.961"/>
								<path clip-path="url(#SVGID_82_)" fill="#F15B28" d="M253.732,124.677c0.927,3.612-1.264,7.288-4.889,8.211
									c-3.627,0.921-7.314-1.26-8.24-4.873l-10.594-41.35c-0.927-3.611,1.264-7.286,4.889-8.208
									c3.625-0.921,7.314,1.256,8.24,4.87L253.732,124.677z"/>
								<path clip-path="url(#SVGID_82_)" fill="#F15B28" d="M173.685,145.031c0.925,3.611-1.261,7.289-4.889,8.211
									c-3.624,0.921-7.315-1.26-8.239-4.873l-10.594-41.348c-0.926-3.613,1.266-7.289,4.887-8.21
									c3.628-0.922,7.314,1.26,8.241,4.872L173.685,145.031z"/>
								<path clip-path="url(#SVGID_82_)" fill="#F15B28" d="M250.135,139.75c-4.769,9.223-70.547,24.688-78.374,19.929
									c-8.219-4.997-20.555-60.704-17.131-66.866c4.412-7.947,69.943-24.292,78.374-19.93
									C238.484,75.719,253.99,132.302,250.135,139.75"/>
								<path clip-path="url(#SVGID_82_)" fill="#FFFFFF" d="M244.292,136.425c-4.14,8.003-61.241,21.429-68.034,17.299
									c-7.137-4.339-17.843-52.698-14.873-58.048c3.832-6.896,60.717-21.085,68.035-17.3
									C234.18,80.839,247.639,129.958,244.292,136.425"/>
								<polygon clip-path="url(#SVGID_82_)" fill="#F15B28" points="218.255,137.839 218.637,139.333 199.681,144.153 
									199.298,142.661 197.554,143.105 198.217,145.703 198.717,145.576 199.964,145.258 218.92,140.439 220.666,139.994 
									220.382,138.889 219.999,137.395 								"/>
								<path clip-path="url(#SVGID_82_)" fill="#F15B28" d="M192.758,132.867c1,3.902-0.377,7.622-3.075,8.308
									c-2.701,0.687-5.699-1.92-6.699-5.824c-1-3.904,0.379-7.622,3.079-8.309C188.76,126.356,191.76,128.963,192.758,132.867"/>
								<path clip-path="url(#SVGID_82_)" fill="none" stroke="#FFFFFF" stroke-width="0.6832" stroke-miterlimit="10" d="
									M192.758,132.867c1,3.902-0.377,7.622-3.075,8.308c-2.701,0.687-5.699-1.92-6.699-5.824c-1-3.904,0.379-7.622,3.079-8.309
									C188.76,126.356,191.76,128.963,192.758,132.867z"/>
								<path clip-path="url(#SVGID_82_)" fill="#F15B28" d="M228.369,123.711c1.001,3.902-0.376,7.621-3.074,8.308
									c-2.699,0.687-5.697-1.92-6.697-5.822c-1-3.904,0.377-7.625,3.076-8.311C224.372,117.2,227.371,119.809,228.369,123.711"/>
								<path clip-path="url(#SVGID_82_)" fill="none" stroke="#FFFFFF" stroke-width="0.6832" stroke-miterlimit="10" d="
									M228.369,123.711c1.001,3.902-0.375,7.621-3.074,8.308s-5.697-1.92-6.697-5.822c-1-3.904,0.377-7.625,3.076-8.311
									C224.372,117.2,227.371,119.809,228.369,123.711z"/>
								<path clip-path="url(#SVGID_82_)" fill="#F15B28" d="M256.514,222.328c-0.014,1.829,1.568,3.326,3.534,3.34
									c1.966,0.016,3.57-1.457,3.583-3.286l0.079-10.413c0.015-1.828-1.567-3.324-3.534-3.339
									c-1.964-0.017-3.568,1.457-3.584,3.287L256.514,222.328z"/>
								<path clip-path="url(#SVGID_82_)" fill="#F15B28" d="M251.417,223.943c-0.017,1.996,1.565,3.631,3.531,3.646
									c1.966,0.013,3.569-1.596,3.586-3.593l0.087-11.368c0.014-1.998-1.568-3.63-3.532-3.646
									c-1.967-0.015-3.571,1.594-3.586,3.591L251.417,223.943z"/>
								<path clip-path="url(#SVGID_82_)" fill="#F15B28" d="M248.365,223.921c-0.014,1.998,1.566,3.629,3.531,3.646
									c1.967,0.016,3.571-1.592,3.586-3.59l0.086-11.371c0.017-1.998-1.564-3.631-3.53-3.646
									c-1.965-0.015-3.569,1.593-3.587,3.591L248.365,223.921z"/>
								<path clip-path="url(#SVGID_82_)" fill="#F15B28" d="M244.215,235.006c-0.025,3.45,1.547,6.262,3.512,6.273
									c1.965,0.017,3.58-2.77,3.606-6.221l0.147-19.646c0.025-3.452-1.547-6.264-3.512-6.278c-1.966-0.014-3.58,2.775-3.605,6.226
									L244.215,235.006z"/>
								<path clip-path="url(#SVGID_82_)" fill="#F15B28" d="M244.814,213.84c-0.035,4.434,4.164,8.061,9.377,8.102
									c5.216,0.035,9.469-3.524,9.502-7.959c0.035-4.435-4.166-8.062-9.379-8.1C249.102,205.842,244.848,209.404,244.814,213.84"
									/>
								<path clip-path="url(#SVGID_82_)" fill="#F15B28" d="M165.96,220.167c0,0-7.076,15.989-4.936,17.41
									c2.14,1.419,9.986-7.817,9.986-13.499"/>
							</g>
						</g>
					</g>
				</g>
				<g clip-path="url(#SVGID_2_)">
					<g>
						<defs>
							<rect id="SVGID_83_" x="86.852" y="36.979" width="248.835" height="242.634"/>
						</defs>
						<clipPath id="SVGID_84_">
							<use xlink:href="#SVGID_83_"  overflow="visible"/>
						</clipPath>
						<g clip-path="url(#SVGID_84_)">
							<g>
								<defs>
									<rect id="SVGID_85_" x="86.852" y="36.979" width="248.835" height="242.634"/>
								</defs>
								<clipPath id="SVGID_86_">
									<use xlink:href="#SVGID_85_"  overflow="visible"/>
								</clipPath>
								<g clip-path="url(#SVGID_86_)">
									<g>
										<defs>
											<rect id="SVGID_87_" x="86.852" y="36.979" width="248.835" height="242.634"/>
										</defs>
										<clipPath id="SVGID_88_">
											<use xlink:href="#SVGID_87_"  overflow="visible"/>
										</clipPath>
										<path clip-path="url(#SVGID_88_)" fill="none" stroke="#29AAE1" stroke-width="0.684" stroke-miterlimit="10" d="
											M172.89,279.254c-49.721-16.152-85.661-62.842-85.661-117.919c0-68.471,55.536-123.978,124.041-123.978
											c68.506,0,124.039,55.507,124.039,123.978c0,51.019-30.84,94.843-74.906,113.862"/>
									</g>
								</g>
							</g>
						</g>
						<g clip-path="url(#SVGID_84_)">
							<g>
								<defs>
									<rect id="SVGID_89_" x="78.3" y="196.576" width="52.139" height="52.138"/>
								</defs>
								<clipPath id="SVGID_90_">
									<use xlink:href="#SVGID_89_"  overflow="visible"/>
								</clipPath>
								<g clip-path="url(#SVGID_90_)">
									<g>
										<defs>
											<rect id="SVGID_91_" x="78.3" y="196.576" width="52.139" height="52.138"/>
										</defs>
										<clipPath id="SVGID_92_">
											<use xlink:href="#SVGID_91_"  overflow="visible"/>
										</clipPath>
										<g clip-path="url(#SVGID_92_)">
											<g>
												<defs>
													<rect id="SVGID_93_" x="78.3" y="196.576" width="52.139" height="52.138"/>
												</defs>
												<defs>
													<rect id="SVGID_94_" x="78.3" y="196.576" width="52.139" height="52.138"/>
												</defs>
												<defs>
													<rect id="SVGID_95_" x="78.3" y="196.576" width="52.139" height="52.138"/>
												</defs>
												<defs>
													<rect id="SVGID_96_" x="78.3" y="196.576" width="52.139" height="52.138"/>
												</defs>
												<clipPath id="SVGID_97_">
													<use xlink:href="#SVGID_93_"  overflow="visible"/>
												</clipPath>
												<clipPath id="SVGID_98_" clip-path="url(#SVGID_97_)">
													<use xlink:href="#SVGID_94_"  overflow="visible"/>
												</clipPath>
												<clipPath id="SVGID_99_" clip-path="url(#SVGID_98_)">
													<use xlink:href="#SVGID_95_"  overflow="visible"/>
												</clipPath>
												<clipPath id="SVGID_100_" clip-path="url(#SVGID_99_)">
													<use xlink:href="#SVGID_96_"  overflow="visible"/>
												</clipPath>
												<path clip-path="url(#SVGID_100_)" fill="#29AAE1" d="M130.439,222.646c0,14.398-11.672,26.067-26.069,26.067
													c-14.398,0-26.07-11.669-26.07-26.067c0-14.397,11.672-26.069,26.07-26.069
													C118.767,196.576,130.439,208.248,130.439,222.646"/>
												<path clip-path="url(#SVGID_100_)" fill="#FFFFFF" d="M111.298,236.145h-1.714v-2.822H98.57v2.822h-1.716
													c-0.408,0-0.738,0.328-0.738,0.735c0,0.409,0.33,0.738,0.738,0.738h14.444c0.41,0,0.74-0.329,0.74-0.738
													C112.039,236.473,111.708,236.145,111.298,236.145"/>
												<path clip-path="url(#SVGID_100_)" fill="#FFFFFF" d="M91.573,231.402c-1.386,0-2.51-1.125-2.51-2.51v-18.266
													c0-1.387,1.124-2.51,2.51-2.511h25.009c1.385,0.001,2.508,1.124,2.508,2.511v18.266c0,1.385-1.123,2.51-2.508,2.51
													H91.573z M90.54,210.628v18.265c0,0.569,0.463,1.031,1.033,1.033h25.009c0.57-0.002,1.03-0.464,1.032-1.033v-18.265
													c-0.002-0.571-0.462-1.032-1.032-1.035H91.573C91.003,209.596,90.54,210.057,90.54,210.628"/>
												<path clip-path="url(#SVGID_100_)" fill="#FFFFFF" d="M114.928,211.623H93.225c-0.408,0-0.739,0.331-0.739,0.736v14.799
													c0,0.406,0.331,0.74,0.739,0.74h21.703c0.408,0,0.74-0.334,0.74-0.74v-14.799
													C115.668,211.954,115.336,211.623,114.928,211.623 M106.354,223.465l-2.572-2.572l-1.802,1.803l-1.607-6.641l6.64,1.608
													l-1.802,1.802l2.572,2.572L106.354,223.465z"/>
											</g>
										</g>
									</g>
								</g>
								<g clip-path="url(#SVGID_90_)">
									<g>
										<defs>
											<rect id="SVGID_101_" x="184.648" y="10.909" width="52.14" height="52.142"/>
										</defs>
										<clipPath id="SVGID_102_">
											<use xlink:href="#SVGID_101_"  overflow="visible"/>
										</clipPath>
										<g clip-path="url(#SVGID_102_)">
											<g>
												<defs>
													<rect id="SVGID_103_" x="184.648" y="10.909" width="52.14" height="52.142"/>
												</defs>
												<clipPath id="SVGID_104_">
													<use xlink:href="#SVGID_103_"  overflow="visible"/>
												</clipPath>
												<g clip-path="url(#SVGID_104_)">
													<g>
														<defs>
															<rect id="SVGID_105_" x="184.648" y="10.909" width="52.14" height="52.142"/>
														</defs>
														<defs>
															<rect id="SVGID_106_" x="184.648" y="10.909" width="52.14" height="52.142"/>
														</defs>
														<defs>
															<rect id="SVGID_107_" x="184.648" y="10.909" width="52.14" height="52.142"/>
														</defs>
														<defs>
															<rect id="SVGID_108_" x="184.648" y="10.909" width="52.14" height="52.142"/>
														</defs>
														<clipPath id="SVGID_109_">
															<use xlink:href="#SVGID_105_"  overflow="visible"/>
														</clipPath>
														<clipPath id="SVGID_110_" clip-path="url(#SVGID_109_)">
															<use xlink:href="#SVGID_106_"  overflow="visible"/>
														</clipPath>
														<clipPath id="SVGID_111_" clip-path="url(#SVGID_110_)">
															<use xlink:href="#SVGID_107_"  overflow="visible"/>
														</clipPath>
														<clipPath id="SVGID_112_" clip-path="url(#SVGID_111_)">
															<use xlink:href="#SVGID_108_"  overflow="visible"/>
														</clipPath>
														<path clip-path="url(#SVGID_112_)" fill="#29AAE1" d="M236.788,36.979c0,14.397-11.675,26.071-26.07,26.071
															c-14.398,0-26.069-11.674-26.069-26.071c0-14.399,11.671-26.07,26.069-26.07
															C225.113,10.909,236.788,22.581,236.788,36.979"/>
														<path clip-path="url(#SVGID_112_)" fill="#FFFFFF" d="M202.223,43.759h-6.087c-1.502,0.037-1.292-1.293-1.292-1.293
															s0.839-5.031,1.957-6.636c1.116-1.607,3.073-1.536,3.073-1.536h2.098c0,0,2.452-0.269,3.569,1.616
															c0.327,0.415,0.616,1.022,0.865,1.705c-0.867,0.375-1.791,0.993-2.515,2.036
															C203.247,40.577,202.68,42.146,202.223,43.759 M203.45,30.024c0-1.42,0.422-2.742,1.14-3.854
															c-0.78-1.171-2.111-1.943-3.621-1.943c-2.406,0-4.355,1.95-4.355,4.353c0,2.405,1.95,4.354,4.355,4.354
															c1.044,0,2.002-0.368,2.754-0.984C203.55,31.338,203.45,30.692,203.45,30.024"/>
														<path clip-path="url(#SVGID_112_)" fill="#FFFFFF" d="M223.729,28.581c0,2.405-1.951,4.354-4.354,4.354
															c-0.756,0-1.468-0.192-2.085-0.531c0.264-0.746,0.416-1.544,0.416-2.38c0-1.658-0.574-3.182-1.525-4.394
															c0.795-0.861,1.932-1.403,3.194-1.403C221.777,24.228,223.729,26.177,223.729,28.581 M223.945,35.911
															c-1.119-1.886-3.571-1.617-3.571-1.617h-2.099c0,0-1.955-0.071-3.07,1.536c-0.25,0.357-0.486,0.891-0.703,1.494
															c1.163,0.328,2.464,1.016,3.338,2.444c0.733,0.956,1.324,2.455,1.783,3.991h4.871c0,0,1.465,0.037,1.465-1.291
															C225.959,42.467,225.271,37.586,223.945,35.911"/>
														<path clip-path="url(#SVGID_112_)" fill="#FFFFFF" d="M216.703,30.023c0,3.385-2.744,6.125-6.126,6.125
															c-3.384,0-6.125-2.74-6.125-6.125c0-3.382,2.741-6.126,6.125-6.126C213.959,23.897,216.703,26.642,216.703,30.023
															 M211.986,38.061h-2.949c0,0-2.751-0.098-4.323,2.163c-1.575,2.263-2.756,9.34-2.756,9.34s-0.296,1.868,1.821,1.818
															h14.006c0,0,2.062,0.05,2.062-1.818c0,0-0.97-6.867-2.836-9.227C215.439,37.683,211.986,38.061,211.986,38.061"/>
													</g>
												</g>
											</g>
										</g>
										<g clip-path="url(#SVGID_102_)">
											<g>
												<defs>
													<rect id="SVGID_113_" x="290.445" y="196.576" width="52.275" height="52.138"/>
												</defs>
												<clipPath id="SVGID_114_">
													<use xlink:href="#SVGID_113_"  overflow="visible"/>
												</clipPath>
												<g clip-path="url(#SVGID_114_)">
													<g>
														<defs>
															<rect id="SVGID_115_" x="290.445" y="196.576" width="52.275" height="52.138"/>
														</defs>
														<clipPath id="SVGID_116_">
															<use xlink:href="#SVGID_115_"  overflow="visible"/>
														</clipPath>
														<g clip-path="url(#SVGID_116_)">
															<g>
																<defs>
																	<rect id="SVGID_117_" x="290.445" y="196.576" width="52.275" height="52.138"/>
																</defs>
																<defs>
																	<rect id="SVGID_118_" x="290.445" y="196.576" width="52.275" height="52.138"/>
																</defs>
																<defs>
																	<rect id="SVGID_119_" x="290.445" y="196.576" width="52.275" height="52.138"/>
																</defs>
																<clipPath id="SVGID_120_">
																	<use xlink:href="#SVGID_117_"  overflow="visible"/>
																</clipPath>
																<clipPath id="SVGID_121_" clip-path="url(#SVGID_120_)">
																	<use xlink:href="#SVGID_118_"  overflow="visible"/>
																</clipPath>
																<clipPath id="SVGID_122_" clip-path="url(#SVGID_121_)">
																	<use xlink:href="#SVGID_119_"  overflow="visible"/>
																</clipPath>
																<path clip-path="url(#SVGID_122_)" fill="#29AAE1" d="M342.723,222.646c0,14.397-11.705,26.067-26.14,26.067
																	c-14.437,0-26.138-11.67-26.138-26.067s11.701-26.069,26.138-26.069
																	C331.018,196.576,342.723,208.248,342.723,222.646"/>
																<path clip-path="url(#SVGID_122_)" fill="#29AAE1" d="M329.266,231.501c-0.119,0.146-0.285,0.233-0.47,0.254
																	l-24.711,2.647c-0.384,0.037-0.731-0.246-0.771-0.62l-2.006-18.63c-0.041-0.381,0.237-0.727,0.621-0.77
																	l24.711-2.644c0.023-0.007,0.049-0.007,0.075-0.007c0.351,0,0.655,0.274,0.694,0.627l2.004,18.627
																	C329.436,231.174,329.381,231.354,329.266,231.501"/>
																<path clip-path="url(#SVGID_122_)" fill="#FFFFFF" d="M330.102,230.391l-2.004-18.632
																	c-0.086-0.801-0.802-1.396-1.625-1.304l-24.709,2.645c-0.809,0.088-1.396,0.813-1.307,1.617l2.003,18.631
																	c0.082,0.748,0.712,1.312,1.465,1.312c0.054,0,0.104-0.005,0.158-0.007l24.711-2.646
																	c0.39-0.04,0.738-0.23,0.989-0.537C330.031,231.16,330.145,230.779,330.102,230.391 M329.182,230.982
																	c-0.119,0.146-0.285,0.233-0.47,0.256L304,233.884c-0.385,0.04-0.73-0.245-0.771-0.618l-2.004-18.629
																	c-0.041-0.383,0.236-0.728,0.621-0.771l24.711-2.642c0.023-0.007,0.049-0.007,0.072-0.007
																	c0.354,0,0.659,0.273,0.697,0.624l2.004,18.631C329.352,230.654,329.296,230.836,329.182,230.982 M311.079,227.572
																	l-5.698,0.609l-0.611-5.685l5.697-0.61L311.079,227.572z M312.473,222.4c-0.129,0-0.24-0.098-0.256-0.23
																	c-0.015-0.141,0.088-0.268,0.23-0.281l13.352-1.43c0.146-0.018,0.27,0.088,0.284,0.229s-0.087,0.269-0.229,0.28
																	L312.5,222.4C312.491,222.4,312.484,222.4,312.473,222.4 M312.746,224.947c-0.129,0-0.241-0.1-0.256-0.23
																	c-0.016-0.143,0.088-0.269,0.23-0.283l13.352-1.431c0.144-0.015,0.271,0.086,0.285,0.229
																	c0.015,0.141-0.088,0.268-0.229,0.281l-13.353,1.43C312.766,224.947,312.758,224.947,312.746,224.947
																	 M312.994,227.236c-0.133,0-0.243-0.096-0.258-0.232c-0.016-0.139,0.09-0.266,0.23-0.277l13.35-1.431
																	c0.143-0.019,0.271,0.085,0.285,0.228c0.017,0.142-0.086,0.268-0.228,0.283l-13.353,1.428
																	C313.012,227.236,313.003,227.236,312.994,227.236 M305.585,230.348c-0.13,0-0.242-0.1-0.257-0.229
																	c-0.014-0.142,0.088-0.271,0.229-0.285l21.012-2.246c0.145-0.015,0.266,0.086,0.281,0.228
																	c0.016,0.141-0.089,0.267-0.229,0.283l-21.007,2.25C305.604,230.346,305.596,230.348,305.585,230.348
																	 M332.003,233.262c-0.246,0.305-0.599,0.497-0.987,0.535l-24.711,2.646c-0.054,0.007-0.105,0.011-0.158,0.011
																	c-0.754,0-1.387-0.567-1.465-1.313l-0.037-0.347l0.77-0.082l0.037,0.347c0.039,0.375,0.387,0.655,0.771,0.621
																	l24.709-2.646c0.188-0.021,0.352-0.109,0.469-0.256c0.117-0.146,0.172-0.33,0.153-0.514l-2.005-18.629
																	c-0.037-0.35-0.345-0.623-0.695-0.623c-0.025,0-0.051,0-0.076,0.004l-0.281,0.027l-0.082-0.768l0.279-0.028
																	c0.824-0.091,1.539,0.507,1.625,1.305l2.006,18.63C332.365,232.573,332.25,232.953,332.003,233.262"/>
															</g>
														</g>
													</g>
												</g>
											</g>
										</g>
									</g>
								</g>
							</g>
						</g>
					</g>
				</g>
			</g>
		</g>
	</g>
	<g display="inline">
		<g>
			<defs>
				<rect id="SVGID_123_" x="149.75" y="72.149" width="124.28" height="235.046"/>
			</defs>
			<clipPath id="SVGID_124_">
				<use xlink:href="#SVGID_123_"  overflow="visible"/>
			</clipPath>
			<g clip-path="url(#SVGID_124_)">
				<defs>
					<rect id="SVGID_125_" x="149.75" y="72.149" width="124.28" height="235.046"/>
				</defs>
				<clipPath id="SVGID_126_">
					<use xlink:href="#SVGID_125_"  overflow="visible"/>
				</clipPath>
				<g clip-path="url(#SVGID_126_)">
					<defs>
						<rect id="SVGID_127_" x="149.75" y="72.149" width="124.28" height="235.046"/>
					</defs>
					<clipPath id="SVGID_128_">
						<use xlink:href="#SVGID_127_"  overflow="visible"/>
					</clipPath>
					<path clip-path="url(#SVGID_128_)" fill="#FFFFFF" d="M252.282,285.465c0,6.147-5.565,11.131-12.431,11.131
						c-6.867,0-12.435-4.983-12.435-11.131c0-6.149,5.567-11.134,12.435-11.134C246.717,274.331,252.282,279.315,252.282,285.465"/>
					<path clip-path="url(#SVGID_128_)" fill="#F05A28" d="M243.724,160.026c0,4.139-3.367,7.494-7.522,7.494
						c-4.152,0-7.521-3.355-7.521-7.494s3.368-7.492,7.521-7.492C240.356,152.534,243.724,155.888,243.724,160.026"/>
					<path clip-path="url(#SVGID_128_)" fill="#F05A28" d="M201.295,164.216c0,3.354-2.732,6.076-6.1,6.076
						c-3.367,0-6.099-2.722-6.099-6.076s2.731-6.073,6.099-6.073C198.562,158.143,201.295,160.861,201.295,164.216"/>
					<path clip-path="url(#SVGID_128_)" fill="#F05A28" d="M202.557,152.903c0,0-9.255,4.61-10.096,6.704
						c-0.841,2.096,1.683,6.706,2.944,13.407c1.263,6.704-1.261,26.817-1.681,33.102c-0.347,5.171,15.393-8.799,18.085-8.799
						c5.888,0,19.348,12.989,18.085,5.864c-0.994-5.611,2.524-34.355,2.944-36.87s2.103-8.798,1.683-10.894
						c-0.421-2.095-11.356-6.286-13.458-6.286C218.959,149.132,202.557,152.903,202.557,152.903"/>
					<polygon clip-path="url(#SVGID_128_)" fill="#F05A28" points="237.254,166.312 245.877,182.231 251.344,181.395 
						241.25,160.026 					"/>
					<path clip-path="url(#SVGID_128_)" fill="#F05A28" d="M192.04,162.539l-8.832,16.342c0,0,6.309,1.258,6.309,3.352
						c0,2.097,7.149-17.179,7.149-17.179L192.04,162.539z"/>
					<path clip-path="url(#SVGID_128_)" fill="#F05A28" d="M182.259,180.144c0,0-3.952,5.653-5.36,8.794
						c-0.875,1.95-5.047,11.73-5.047,13.826c0,2.094-2.523,4.189,0,5.028c2.523,0.838,10.515,3.352,12.196,0.418
						c1.684-2.932,4.087-4.648,4.206-8.799c0.108-3.769,1.262-11.311,1.262-14.244c0-2.935-0.164-2.904-0.164-2.904L182.259,180.144
						z"/>
					<path clip-path="url(#SVGID_128_)" fill="#F05A28" d="M195.405,210.307c0,0,12.619-10.057,17.246-9.639
						c4.626,0.42,15.14,6.285,17.244,7.962c2.102,1.677,2.502,12.133,2.502,12.133l-14.342-0.347c0,0-6.485-3.78-7.749-1.269
						c-1.261,2.515-15.004,2.658-15.438,1.037C193.943,216.729,195.405,210.307,195.405,210.307"/>
					<polygon clip-path="url(#SVGID_128_)" fill="#F05A28" points="217.276,217.846 225.435,244.013 236.61,242.935 231.576,216.59 
											"/>
					<polygon clip-path="url(#SVGID_128_)" fill="#F05A28" points="194.564,218.266 198.395,244.729 206.325,247.962 
						210.291,244.371 210.127,213.659 					"/>
					<path clip-path="url(#SVGID_128_)" fill="#F05A28" d="M225.074,249.758c0,0-0.375,9.288,0,15.804
						c0.366,6.398,0.108,35.767,0.108,35.767s4.197-19.433,13.971-21.988c8.385-2.189,16.481,6.125,16.481,6.125l-15.78-37.502
						c0,0-5.167,2.872-6.849,2.872C231.322,250.835,225.074,249.758,225.074,249.758"/>
					<path clip-path="url(#SVGID_128_)" fill="#F05A28" d="M226.049,291.921c0,0,7.569-10.056,17.244-10.475
						c9.673-0.419,17.471,4.201,23.973,9.636c5.485,4.589,7.025,8.908,6.73,10.058s-6.951,2.885-10.736,3.72
						c-3.784,0.84-19.967,2.983-27.117,2.146c-7.15-0.837-13.039-3.771-12.197-7.124
						C224.788,296.529,226.049,291.921,226.049,291.921"/>
					<path clip-path="url(#SVGID_128_)" fill="#FFFFFF" d="M227.789,167.124l-7.167,1.95c-1.168-2.657-2.964-4.911-5.172-6.557
						l-0.464,0.539c2.106,1.579,3.825,3.712,4.949,6.203l-20.718,5.639l0.22,2.394l21.638,1.956
						c-0.61,3.059-2.071,5.822-4.148,7.967l0.539,0.512c2.179-2.228,3.712-5.154,4.322-8.414l7.181,0.648l-0.285-3.111l-6.595-0.515
						c0.007-0.611-0.014-1.227-0.071-1.851c-0.076-0.822-0.213-1.623-0.397-2.403l6.47-1.702L227.789,167.124z M221.391,176.279
						l-12.146-0.942l11.707-3.079c0.174,0.735,0.3,1.49,0.373,2.264C221.378,175.113,221.397,175.7,221.391,176.279"/>
					<path clip-path="url(#SVGID_128_)" fill="#F05A28" d="M196.23,275.258l-22.712,22.986c0,0-1.082,4.669,1.441,5.028
						c2.524,0.357,34.375-2.176,35.513-2.467c1.454-0.37,10.513-4.664,11.595-5.021c1.081-0.36,1.591-14.92-2.929-19.16
						C214.617,272.383,202,269.87,202,269.87L196.23,275.258z"/>
					<path clip-path="url(#SVGID_128_)" fill="#FFFFFF" d="M197.982,251.461l-3.978,26.244c0,0,3.609-2.136,8.999-0.039
						c5.389,2.095,7.831,10.728,7.831,14.08s-1.799,9.458-1.799,9.458l6.796-2.489c0,0,1.4-11.663,2.259-15.207
						c0.672-2.769,2.465-5.245,2.465-5.245l-5.723-26.839l-7.609-2.835L197.982,251.461z"/>
					<path clip-path="url(#SVGID_128_)" fill="#F05A28" d="M198.034,250.835l-3.974,26.535c0,0,3.628-3.679,8.674-1.583
						c5.048,2.094,8.971,10.566,8.833,15.083c-0.101,3.351-2.439,10.327-2.439,10.327l6.572-2.595c0,0,0.96-12.998,1.756-15.694
						c1.026-3.473,1.683-6.283,1.683-6.283l-4.521-25.79l-7.93-2.872L198.034,250.835z"/>
					<path clip-path="url(#SVGID_128_)" fill="#F05A28" d="M190.681,181.857c0,2.686-2.188,4.864-4.884,4.864
						c-2.696,0-4.881-2.179-4.881-4.864c0-2.685,2.185-4.861,4.881-4.861C188.494,176.996,190.681,179.173,190.681,181.857"/>
					<path clip-path="url(#SVGID_128_)" fill="#F05A28" d="M253.575,181.645c0,2.646-2.153,4.791-4.811,4.791
						c-2.655,0-4.81-2.146-4.81-4.791c0-2.646,2.154-4.792,4.81-4.792C251.422,176.853,253.575,178.998,253.575,181.645"/>
					<path clip-path="url(#SVGID_128_)" fill="#F05A28" d="M246.109,183.575l0.144,24.604l5.025,4.147l6.893-1.145
						c0,0,1.201-1.036,2.442-4.29c1.238-3.256-5.256-22.249-7.612-24.605C252.423,180.886,246.109,183.575,246.109,183.575"/>
					<path clip-path="url(#SVGID_128_)" fill="#F05A28" d="M170.988,205.76l-5.03,14.402l9.43,8.767l9.43-5.009
						c0,0,4.283-8.645,1.141-8.645c-3.142,0-2.565,3.257-5.167,5.417c-3.262,2.707-4.198-1.541-7.34-2.169
						c-3.143-0.626,9.2-4.734,10.597-10.313C185.446,202.629,170.988,205.76,170.988,205.76"/>
					<path clip-path="url(#SVGID_128_)" fill="#F05A28" d="M181.98,206.839c0,0,0.479,15.584-0.962,16.245
						c-1.441,0.661-5.883,1.266-5.081-3.552c0.803-4.816,2.446-9.815,3.133-11.103C179.759,207.142,181.98,206.839,181.98,206.839"
						/>
					<path clip-path="url(#SVGID_128_)" fill="#F05A28" d="M242.019,244.886c0,4.966-4.601,8.994-10.275,8.994
						c-5.676,0-10.274-4.028-10.274-8.994c0-4.968,4.599-8.993,10.274-8.993C237.418,235.893,242.019,239.918,242.019,244.886"/>
					<path clip-path="url(#SVGID_128_)" fill="#F05A28" d="M216.06,247.206c0,5.074-4.762,9.187-10.635,9.187
						s-10.637-4.112-10.637-9.187c0-5.076,4.764-9.189,10.637-9.189S216.06,242.13,216.06,247.206"/>
					<path clip-path="url(#SVGID_128_)" fill="#FFFFFF" d="M236.488,144.956c0.656,2.564-9.523,7.367-22.738,10.727
						c-13.216,3.36-24.462,4.006-25.119,1.443c-0.657-2.563,9.523-7.367,22.738-10.727
						C224.586,143.038,235.832,142.394,236.488,144.956"/>
					<path clip-path="url(#SVGID_128_)" fill="#F05A28" d="M253.732,124.672c0.927,3.612-1.263,7.288-4.888,8.211
						c-3.627,0.921-7.315-1.261-8.24-4.872l-10.594-41.35c-0.927-3.611,1.263-7.286,4.889-8.208c3.625-0.921,7.314,1.256,8.239,4.87
						L253.732,124.672z"/>
					<path clip-path="url(#SVGID_128_)" fill="#F05A28" d="M173.685,145.026c0.925,3.611-1.261,7.289-4.889,8.211
						c-3.624,0.922-7.315-1.26-8.239-4.872l-10.594-41.348c-0.926-3.613,1.266-7.289,4.887-8.21c3.628-0.922,7.314,1.26,8.241,4.872
						L173.685,145.026z"/>
					<path clip-path="url(#SVGID_128_)" fill="#F05A28" d="M250.135,139.745c-4.769,9.223-70.547,24.687-78.374,19.929
						c-8.219-4.997-20.555-60.704-17.131-66.866c4.412-7.947,69.943-24.292,78.374-19.93
						C238.484,75.714,253.99,132.297,250.135,139.745"/>
					<path clip-path="url(#SVGID_128_)" fill="#FFFFFF" d="M244.292,136.421c-4.139,8.002-61.241,21.428-68.034,17.299
						c-7.137-4.339-17.843-52.698-14.873-58.048c3.832-6.896,60.716-21.085,68.035-17.3
						C234.18,80.834,247.639,129.954,244.292,136.421"/>
					<polygon clip-path="url(#SVGID_128_)" fill="#F05A28" points="218.255,137.835 218.637,139.328 199.681,144.147 
						199.298,142.655 197.554,143.101 198.217,145.698 198.717,145.571 199.964,145.253 218.92,140.435 220.666,139.989 
						220.382,138.884 219.999,137.39 					"/>
					<path clip-path="url(#SVGID_128_)" fill="#F05A28" d="M192.758,132.862c1,3.902-0.377,7.622-3.075,8.309
						c-2.701,0.686-5.699-1.92-6.699-5.824c-1-3.904,0.379-7.623,3.079-8.309C188.76,126.351,191.76,128.958,192.758,132.862"/>
					<path clip-path="url(#SVGID_128_)" fill="none" stroke="#FFFFFF" stroke-width="0.6832" stroke-miterlimit="10" d="
						M192.758,132.862c1,3.902-0.377,7.622-3.075,8.309c-2.701,0.686-5.699-1.92-6.699-5.824c-1-3.904,0.379-7.623,3.079-8.309
						C188.76,126.351,191.76,128.958,192.758,132.862z"/>
					<path clip-path="url(#SVGID_128_)" fill="#F05A28" d="M228.369,123.706c1.001,3.902-0.376,7.621-3.074,8.309
						c-2.7,0.687-5.698-1.92-6.697-5.822c-1.001-3.904,0.377-7.625,3.076-8.311C224.372,117.195,227.371,119.804,228.369,123.706"/>
					<path clip-path="url(#SVGID_128_)" fill="none" stroke="#FFFFFF" stroke-width="0.6832" stroke-miterlimit="10" d="
						M228.369,123.706c1.001,3.902-0.375,7.621-3.074,8.309c-2.7,0.687-5.698-1.92-6.697-5.822
						c-1.001-3.904,0.377-7.625,3.076-8.311C224.372,117.195,227.371,119.804,228.369,123.706z"/>
					<path clip-path="url(#SVGID_128_)" fill="#F05A28" d="M256.513,222.323c-0.013,1.829,1.569,3.327,3.535,3.34
						c1.965,0.016,3.57-1.457,3.583-3.286l0.079-10.413c0.014-1.828-1.567-3.324-3.534-3.339c-1.964-0.016-3.569,1.457-3.584,3.287
						L256.513,222.323z"/>
					<path clip-path="url(#SVGID_128_)" fill="#F05A28" d="M251.417,223.939c-0.017,1.996,1.565,3.63,3.531,3.645
						c1.966,0.013,3.57-1.596,3.586-3.593l0.087-11.368c0.014-1.998-1.568-3.63-3.532-3.645c-1.967-0.015-3.572,1.593-3.586,3.59
						L251.417,223.939z"/>
					<path clip-path="url(#SVGID_128_)" fill="#F05A28" d="M248.365,223.916c-0.014,1.998,1.567,3.629,3.531,3.645
						c1.967,0.016,3.572-1.592,3.586-3.59l0.086-11.371c0.017-1.997-1.564-3.63-3.53-3.645c-1.965-0.014-3.569,1.593-3.587,3.591
						L248.365,223.916z"/>
					<path clip-path="url(#SVGID_128_)" fill="#F05A28" d="M244.215,235.001c-0.025,3.45,1.546,6.262,3.512,6.274
						c1.965,0.016,3.58-2.77,3.606-6.222l0.147-19.646c0.026-3.452-1.546-6.263-3.511-6.278c-1.966-0.014-3.581,2.775-3.606,6.225
						L244.215,235.001z"/>
					<path clip-path="url(#SVGID_128_)" fill="#F05A28" d="M244.814,213.835c-0.034,4.434,4.165,8.06,9.378,8.101
						c5.215,0.036,9.468-3.524,9.502-7.959c0.034-4.434-4.166-8.062-9.379-8.099C249.101,205.837,244.848,209.4,244.814,213.835"/>
					<path clip-path="url(#SVGID_128_)" fill="#F05A28" d="M165.96,220.162c0,0-7.076,15.989-4.936,17.41
						c2.14,1.419,9.986-7.817,9.986-13.499"/>
				</g>
			</g>
		</g>
		<g>
			<defs>
				<rect id="SVGID_129_" x="86.852" y="36.975" width="248.835" height="242.634"/>
			</defs>
			<clipPath id="SVGID_130_">
				<use xlink:href="#SVGID_129_"  overflow="visible"/>
			</clipPath>
			<g clip-path="url(#SVGID_130_)">
				<defs>
					<rect id="SVGID_131_" x="86.852" y="36.975" width="248.835" height="242.634"/>
				</defs>
				<clipPath id="SVGID_132_">
					<use xlink:href="#SVGID_131_"  overflow="visible"/>
				</clipPath>
				<g clip-path="url(#SVGID_132_)">
					<defs>
						<rect id="SVGID_133_" x="86.852" y="36.975" width="248.835" height="242.634"/>
					</defs>
					<clipPath id="SVGID_134_">
						<use xlink:href="#SVGID_133_"  overflow="visible"/>
					</clipPath>
					<path clip-path="url(#SVGID_134_)" fill="none" stroke="#27A8E0" stroke-width="0.684" stroke-miterlimit="10" d="
						M172.89,279.249c-49.721-16.152-85.661-62.842-85.661-117.919c0-68.471,55.536-123.978,124.041-123.978
						c68.506,0,124.039,55.507,124.039,123.978c0,51.019-30.84,94.843-74.906,113.862"/>
				</g>
			</g>
		</g>
		<g>
			<defs>
				<rect id="SVGID_135_" x="78.3" y="196.571" width="52.139" height="52.138"/>
			</defs>
			<clipPath id="SVGID_136_">
				<use xlink:href="#SVGID_135_"  overflow="visible"/>
			</clipPath>
			<g clip-path="url(#SVGID_136_)">
				<defs>
					<rect id="SVGID_137_" x="78.3" y="196.571" width="52.139" height="52.138"/>
				</defs>
				<clipPath id="SVGID_138_">
					<use xlink:href="#SVGID_137_"  overflow="visible"/>
				</clipPath>
				<g clip-path="url(#SVGID_138_)">
					<defs>
						<rect id="SVGID_139_" x="78.3" y="196.571" width="52.139" height="52.138"/>
					</defs>
					<clipPath id="SVGID_140_">
						<use xlink:href="#SVGID_139_"  overflow="visible"/>
					</clipPath>
					<path clip-path="url(#SVGID_140_)" fill="#27A8E0" d="M130.439,222.641c0,14.399-11.672,26.068-26.069,26.068
						c-14.398,0-26.07-11.669-26.07-26.068c0-14.397,11.672-26.069,26.07-26.069C118.767,196.571,130.439,208.243,130.439,222.641"
						/>
					<path clip-path="url(#SVGID_140_)" fill="#FFFFFF" d="M111.298,236.139h-1.714v-2.822H98.57v2.822h-1.716
						c-0.408,0-0.738,0.329-0.738,0.736c0,0.409,0.33,0.738,0.738,0.738h14.444c0.41,0,0.74-0.329,0.74-0.738
						C112.039,236.468,111.708,236.139,111.298,236.139"/>
					<path clip-path="url(#SVGID_140_)" fill="#FFFFFF" d="M91.573,231.398c-1.386-0.001-2.51-1.125-2.51-2.511v-18.265
						c0-1.387,1.124-2.51,2.51-2.511h25.009c1.385,0.001,2.508,1.124,2.508,2.511v18.265c0,1.386-1.123,2.51-2.508,2.511H91.573z
						 M90.54,210.623v18.265c0,0.569,0.463,1.031,1.033,1.033h25.009c0.57-0.002,1.03-0.464,1.032-1.033v-18.265
						c-0.002-0.571-0.462-1.033-1.032-1.035H91.573C91.003,209.59,90.54,210.052,90.54,210.623"/>
					<path clip-path="url(#SVGID_140_)" fill="#FFFFFF" d="M114.928,211.618H93.225c-0.408,0-0.739,0.331-0.739,0.737v14.798
						c0,0.407,0.331,0.74,0.739,0.74h21.703c0.408,0,0.74-0.333,0.74-0.74v-14.798C115.668,211.949,115.336,211.618,114.928,211.618
						 M106.354,223.46l-2.572-2.572l-1.802,1.802l-1.607-6.64l6.64,1.608l-1.802,1.802l2.572,2.572L106.354,223.46z"/>
				</g>
			</g>
		</g>
		<g>
			<defs>
				<rect id="SVGID_141_" x="184.648" y="10.904" width="52.14" height="52.142"/>
			</defs>
			<clipPath id="SVGID_142_">
				<use xlink:href="#SVGID_141_"  overflow="visible"/>
			</clipPath>
			<g clip-path="url(#SVGID_142_)">
				<defs>
					<rect id="SVGID_143_" x="184.648" y="10.904" width="52.14" height="52.142"/>
				</defs>
				<clipPath id="SVGID_144_">
					<use xlink:href="#SVGID_143_"  overflow="visible"/>
				</clipPath>
				<g clip-path="url(#SVGID_144_)">
					<defs>
						<rect id="SVGID_145_" x="184.648" y="10.904" width="52.14" height="52.142"/>
					</defs>
					<clipPath id="SVGID_146_">
						<use xlink:href="#SVGID_145_"  overflow="visible"/>
					</clipPath>
					<path clip-path="url(#SVGID_146_)" fill="#27A8E0" d="M236.788,36.975c0,14.397-11.674,26.071-26.07,26.071
						c-14.398,0-26.069-11.674-26.069-26.071c0-14.399,11.671-26.07,26.069-26.07C225.114,10.904,236.788,22.576,236.788,36.975"/>
					<path clip-path="url(#SVGID_146_)" fill-rule="evenodd" clip-rule="evenodd" fill="#FFFFFF" d="M202.223,43.754h-6.087
						c-1.502,0.037-1.292-1.293-1.292-1.293s0.839-5.031,1.957-6.636c1.116-1.607,3.073-1.536,3.073-1.536h2.098
						c0,0,2.452-0.269,3.569,1.616c0.327,0.415,0.616,1.022,0.865,1.705c-0.867,0.375-1.791,0.993-2.515,2.036
						C203.247,40.572,202.68,42.141,202.223,43.754 M203.45,30.02c0-1.42,0.422-2.742,1.14-3.854
						c-0.78-1.171-2.11-1.943-3.621-1.943c-2.406,0-4.355,1.95-4.355,4.353c0,2.405,1.95,4.354,4.355,4.354
						c1.044,0,2.002-0.368,2.754-0.984C203.55,31.333,203.45,30.687,203.45,30.02"/>
					<path clip-path="url(#SVGID_146_)" fill-rule="evenodd" clip-rule="evenodd" fill="#FFFFFF" d="M223.728,28.576
						c0,2.405-1.95,4.354-4.354,4.354c-0.756,0-1.468-0.192-2.085-0.531c0.264-0.746,0.416-1.544,0.416-2.38
						c0-1.658-0.574-3.182-1.526-4.394c0.796-0.861,1.932-1.403,3.195-1.403C221.777,24.223,223.728,26.172,223.728,28.576
						 M223.945,35.906c-1.119-1.886-3.571-1.617-3.571-1.617h-2.098c0,0-1.956-0.071-3.071,1.536
						c-0.25,0.357-0.486,0.891-0.703,1.494c1.163,0.328,2.464,1.016,3.338,2.444c0.733,0.956,1.324,2.455,1.783,3.991h4.871
						c0,0,1.465,0.037,1.465-1.291C225.959,42.462,225.271,37.582,223.945,35.906"/>
					<path clip-path="url(#SVGID_146_)" fill-rule="evenodd" clip-rule="evenodd" fill="#FFFFFF" d="M216.703,30.019
						c0,3.385-2.744,6.125-6.126,6.125c-3.384,0-6.125-2.74-6.125-6.125c0-3.382,2.741-6.126,6.125-6.126
						C213.959,23.893,216.703,26.637,216.703,30.019 M211.986,38.056h-2.949c0,0-2.751-0.098-4.323,2.163
						c-1.575,2.263-2.756,9.34-2.756,9.34s-0.296,1.868,1.821,1.818h14.006c0,0,2.063,0.05,2.063-1.818c0,0-0.97-6.867-2.836-9.227
						C215.44,37.678,211.986,38.056,211.986,38.056"/>
				</g>
			</g>
		</g>
		<g>
			<defs>
				<rect id="SVGID_147_" x="290.445" y="196.571" width="52.276" height="52.138"/>
			</defs>
			<clipPath id="SVGID_148_">
				<use xlink:href="#SVGID_147_"  overflow="visible"/>
			</clipPath>
			<g clip-path="url(#SVGID_148_)">
				<defs>
					<rect id="SVGID_149_" x="290.445" y="196.571" width="52.276" height="52.138"/>
				</defs>
				<clipPath id="SVGID_150_">
					<use xlink:href="#SVGID_149_"  overflow="visible"/>
				</clipPath>
				<g clip-path="url(#SVGID_150_)">
					<defs>
						<rect id="SVGID_151_" x="290.445" y="196.571" width="52.276" height="52.138"/>
					</defs>
					<clipPath id="SVGID_152_">
						<use xlink:href="#SVGID_151_"  overflow="visible"/>
					</clipPath>
					<path clip-path="url(#SVGID_152_)" fill="#27A8E0" d="M342.722,222.641c0,14.398-11.704,26.068-26.139,26.068
						c-14.436,0-26.138-11.67-26.138-26.068c0-14.397,11.702-26.069,26.138-26.069C331.018,196.571,342.722,208.243,342.722,222.641
						"/>
					<path clip-path="url(#SVGID_152_)" fill="#27A8E0" d="M329.265,231.496c-0.118,0.145-0.285,0.234-0.469,0.254l-24.711,2.647
						c-0.384,0.038-0.731-0.246-0.771-0.62l-2.005-18.629c-0.042-0.382,0.237-0.727,0.62-0.77l24.712-2.644
						c0.023-0.006,0.048-0.006,0.075-0.006c0.351,0,0.655,0.274,0.694,0.626l2.004,18.628
						C329.436,231.169,329.381,231.349,329.265,231.496"/>
					<path clip-path="url(#SVGID_152_)" fill="#FFFFFF" d="M330.101,230.385l-2.004-18.631c-0.086-0.801-0.801-1.396-1.624-1.304
						l-24.709,2.645c-0.809,0.088-1.396,0.813-1.307,1.617l2.003,18.63c0.082,0.749,0.712,1.312,1.465,1.312
						c0.054,0,0.104-0.004,0.158-0.007l24.711-2.646c0.39-0.04,0.738-0.231,0.989-0.537
						C330.031,231.155,330.144,230.774,330.101,230.385 M329.181,230.979c-0.118,0.146-0.285,0.233-0.469,0.256L304,233.879
						c-0.385,0.04-0.731-0.245-0.771-0.619l-2.004-18.628c-0.042-0.383,0.236-0.728,0.621-0.771l24.711-2.642
						c0.023-0.006,0.048-0.006,0.072-0.006c0.354,0,0.659,0.273,0.697,0.624l2.004,18.63
						C329.351,230.65,329.296,230.831,329.181,230.979 M311.079,227.567l-5.698,0.61l-0.611-5.685l5.697-0.61L311.079,227.567z
						 M312.473,222.396c-0.129,0-0.241-0.097-0.256-0.23c-0.015-0.14,0.088-0.268,0.23-0.282l13.352-1.429
						c0.146-0.017,0.269,0.088,0.284,0.229c0.015,0.14-0.087,0.268-0.229,0.28l-13.354,1.432
						C312.491,222.396,312.484,222.396,312.473,222.396 M312.746,224.942c-0.129,0-0.241-0.1-0.256-0.23
						c-0.015-0.143,0.088-0.269,0.23-0.283l13.352-1.431c0.144-0.014,0.271,0.086,0.286,0.229c0.014,0.141-0.088,0.268-0.23,0.282
						l-13.353,1.429C312.766,224.942,312.758,224.942,312.746,224.942 M312.994,227.231c-0.132,0-0.243-0.096-0.257-0.232
						c-0.016-0.139,0.089-0.266,0.23-0.278l13.35-1.43c0.142-0.019,0.271,0.085,0.285,0.227c0.016,0.142-0.087,0.268-0.228,0.283
						l-13.353,1.429C313.012,227.231,313.003,227.231,312.994,227.231 M305.585,230.342c-0.13,0-0.242-0.099-0.257-0.229
						c-0.014-0.142,0.088-0.27,0.229-0.285l21.011-2.246c0.145-0.015,0.266,0.086,0.281,0.228c0.016,0.14-0.088,0.266-0.229,0.282
						l-21.007,2.25C305.603,230.341,305.595,230.342,305.585,230.342 M332.003,233.256c-0.246,0.305-0.599,0.498-0.988,0.536
						l-24.711,2.647c-0.053,0.006-0.105,0.01-0.157,0.01c-0.755,0-1.387-0.567-1.466-1.313l-0.037-0.347l0.77-0.082l0.037,0.347
						c0.039,0.374,0.387,0.655,0.771,0.621l24.71-2.647c0.187-0.021,0.351-0.109,0.469-0.256c0.117-0.145,0.172-0.33,0.153-0.513
						l-2.005-18.629c-0.037-0.35-0.345-0.624-0.696-0.624c-0.025,0-0.05,0-0.075,0.005l-0.282,0.027l-0.082-0.768l0.28-0.028
						c0.823-0.091,1.539,0.507,1.624,1.305l2.006,18.629C332.365,232.568,332.25,232.948,332.003,233.256"/>
				</g>
			</g>
		</g>
	</g>
</g>
<g id="Layer_2">
	<g>
		<defs>
			<rect id="SVGID_153_" x="86.852" y="36.533" width="248.835" height="242.634"/>
		</defs>
		<clipPath id="SVGID_154_">
			<use xlink:href="#SVGID_153_"  overflow="visible"/>
		</clipPath>
		<g clip-path="url(#SVGID_154_)">
			<defs>
				<rect id="SVGID_155_" x="86.852" y="36.533" width="248.835" height="242.634"/>
			</defs>
			<clipPath id="SVGID_156_">
				<use xlink:href="#SVGID_155_"  overflow="visible"/>
			</clipPath>
			<g clip-path="url(#SVGID_156_)">
				<defs>
					<rect id="SVGID_157_" x="86.852" y="36.533" width="248.835" height="242.634"/>
				</defs>
				<clipPath id="SVGID_158_">
					<use xlink:href="#SVGID_157_"  overflow="visible"/>
				</clipPath>
				<path clip-path="url(#SVGID_158_)" fill="none" stroke="#27A8E0" stroke-width="0.684" stroke-miterlimit="10" d="
					M172.89,278.808c-49.721-16.152-85.661-62.842-85.661-117.919c0-68.471,55.536-123.978,124.041-123.978
					c68.506,0,124.039,55.507,124.039,123.978c0,51.019-30.84,94.843-74.906,113.862"/>
			</g>
		</g>
	</g>
	<circle fill="#3B98D4" cx="102.643" cy="219.761" r="26.138"/>
	<circle fill="#3B98D4" cx="316.592" cy="225.104" r="26.138"/>
	<circle fill="#3B98D4" cx="211.27" cy="36.534" r="26.138"/>
	<g>
		<defs>
			<rect id="SVGID_159_" x="114.133" y="79.5" width="227.342" height="233.428"/>
		</defs>
		<clipPath id="SVGID_160_">
			<use xlink:href="#SVGID_159_"  overflow="visible"/>
		</clipPath>
		<g clip-path="url(#SVGID_160_)">
			<defs>
				<rect id="SVGID_161_" x="114.133" y="79.5" width="227.342" height="233.428"/>
			</defs>
			<clipPath id="SVGID_162_">
				<use xlink:href="#SVGID_161_"  overflow="visible"/>
			</clipPath>
			<g clip-path="url(#SVGID_162_)">
				<defs>
					<rect id="SVGID_163_" x="29.518" y="79.5" width="348.669" height="243.503"/>
				</defs>
				<clipPath id="SVGID_164_">
					<use xlink:href="#SVGID_163_"  overflow="visible"/>
				</clipPath>
				<g clip-path="url(#SVGID_164_)">
					<path fill-rule="evenodd" clip-rule="evenodd" fill="#BA3F29" d="M185.372,90.438c0,1.32,0,2.644,0,3.964
						C184.714,93.975,184.714,90.865,185.372,90.438z"/>
					<path fill-rule="evenodd" clip-rule="evenodd" fill="#3999D5" d="M273.825,103.128c4.416-2.12,2.366-10.121,7.14-11.105
						c5.74-1.182,10.875,8.245,13.886,15.468c3.407,8.175,5.459,16.655,5.949,23.397c0.455,6.242,0.285,15.446-4.363,16.261
						c-4.263,0.748-5.98-4.294-11.503-3.569c-0.973-0.616-2.581-0.593-3.969-0.793c-0.791,0-1.584,0-2.378,0
						c-5.25-0.798-13.577-1.51-18.644,0c-1.013,0.043-0.787,1.328-0.791,2.379c-0.663,0-1.324,0-1.984,0
						c-0.901,0.287-3.097-0.716-2.779,0.793c-2.106,0.007-4.519-0.289-5.551,0.791c-0.268,0-0.529,0-0.794,0
						c-1.143-1.982-4.348,0.523-5.95-0.791c-0.264,0-0.53,0-0.795,0c-1.092-1.421-2.524-2.5-3.17-4.364
						c-0.478-1.903-0.665-4.095-1.191-5.948c-0.077-1.532-0.014-2.922,0.395-3.965c0-0.265,0-0.529,0-0.794
						c0.997-1.781,2.24-3.312,3.57-4.759c10.227-4.712,19.796-10.086,27.373-17.449C270.291,106.996,272.14,105.145,273.825,103.128
						z M275.81,104.714c-2.528,6.545-19.005,11.987-22.213,19.829c-2.052,5.02,1.675,14.795,6.744,15.071
						c1.467,0.66,5.674,0.66,7.14,0c2.115,0,4.232,0,6.345,0c1.382,0.739,3.926,0.305,5.556,0.791
						c3.376-0.063,6.665,2.057,9.123,1.589c-6.239-8.567-10.224-19.393-11.901-32.522c-0.257-1.857,0.519-4.748-0.396-5.949
						C275.996,103.843,275.794,104.169,275.81,104.714z M278.982,112.25c2.129,9.107,3.942,18.535,8.331,25.381
						C288.791,126.392,286.454,115.835,278.982,112.25z"/>
					<path fill-rule="evenodd" clip-rule="evenodd" fill="#BA3F29" d="M154.431,97.179c0.944-0.66,4.611-0.66,5.553,0
						C158.133,97.179,156.282,97.179,154.431,97.179z"/>
					<path fill-rule="evenodd" clip-rule="evenodd" fill="#3999D5" d="M305.957,124.543c-0.748-9.696-4.018-16.866-10.313-21.02
						c12.194,0.758,16.609,21.41,9.916,32.919c-0.927-1.344,0.867-3.35,0.397-5.554
						C306.615,129.686,306.615,125.747,305.957,124.543z"/>
					<path fill-rule="evenodd" clip-rule="evenodd" fill="#E2E0DF" d="M276.603,109.472c-1.168-0.682,0.374-4.073-0.793-4.758
						c-0.016-0.545,0.187-0.872,0.397-1.191C277.121,104.725,276.346,107.615,276.603,109.472z"/>
					<path fill-rule="evenodd" clip-rule="evenodd" fill="#E2E0DF" d="M316.667,118.594c0.655,0.814,0.655,4.343,0,5.156
						C316.667,122.032,316.667,120.312,316.667,118.594z"/>
					<path fill-rule="evenodd" clip-rule="evenodd" fill="#BA3F29" d="M133.012,122.164c0,0.396,0,0.792,0,1.19
						c0,1.321,0,2.643,0,3.964c0,0.397,0,0.795,0,1.191C132.351,127.304,132.351,123.369,133.012,122.164z"/>
					<path fill-rule="evenodd" clip-rule="evenodd" fill="#E2E0DF" d="M321.425,122.561c0.661,2.122,0.661,6.998,0,9.122
						C321.425,128.64,321.425,125.6,321.425,122.561z"/>
					<path fill-rule="evenodd" clip-rule="evenodd" fill="#E2E0DF" d="M133.012,123.354c0.133,0,0.263,0,0.396,0
						c0,1.321,0,2.643,0,3.964c-0.133,0-0.263,0-0.396,0C133.012,125.997,133.012,124.675,133.012,123.354z"/>
					<path fill-rule="evenodd" clip-rule="evenodd" fill="#E2E0DF" d="M305.957,124.543c0.658,1.204,0.658,5.143,0,6.345
						C305.957,128.773,305.957,126.658,305.957,124.543z"/>
					<path fill-rule="evenodd" clip-rule="evenodd" fill="#3999D5" d="M236.542,145.96c-12.538-0.898-6.942-16.479,0.79-17.054
						c-0.228,0.83-0.98,1.131-0.79,2.378c-0.357,0.989-1.287,3.449-0.397,4.364c-0.279,2.789,0.58,4.443,1.188,6.346
						c0.863,1.383,1.783,2.711,3.173,3.568C239.959,146.467,237.746,145.709,236.542,145.96z M234.558,132.475
						c-2.746,2.542-1.058,10.377,1.984,11.897C236.53,141.52,232.998,136.927,234.558,132.475z M230.987,139.614
						c0.39,2.253,1.242,4.045,3.175,4.758c-1.512-2.853-2.428-6.298-2.777-10.311c-0.006,0.789-1.083,0.504-0.796,1.586
						C230.837,136.855,230.083,139.063,230.987,139.614z"/>
					<path fill-rule="evenodd" clip-rule="evenodd" fill="#E2E0DF" d="M230.589,135.648c0.906,0.549,0.149,2.761,0.398,3.966
						C230.083,139.063,230.837,136.855,230.589,135.648z"/>
					<path fill-rule="evenodd" clip-rule="evenodd" fill="#E2E0DF" d="M260.341,139.614c2.38,0,4.76,0,7.14,0
						C266.015,140.274,261.808,140.274,260.341,139.614z"/>
					<path fill-rule="evenodd" clip-rule="evenodd" fill="#BA3F29" d="M216.311,158.65c0.428-0.658,3.539-0.658,3.966,0
						C218.955,158.65,217.636,158.65,216.311,158.65z"/>
					<path fill-rule="evenodd" clip-rule="evenodd" fill="#E2E0DF" d="M240.505,165.787c3.042,0,6.085,0,9.124,0
						C247.506,166.447,242.63,166.447,240.505,165.787z"/>
					<path fill-rule="evenodd" clip-rule="evenodd" fill="#DA9B89" d="M165.537,167.771c-0.697-0.227-2.332,0.48-2.378-0.396
						c1.335,0.252,3.684-0.512,4.361,0.396C166.859,167.771,166.199,167.771,165.537,167.771z"/>
					<path fill-rule="evenodd" clip-rule="evenodd" fill="#DA9B89" d="M168.314,167.771c0.55-0.904,2.761-0.148,3.966-0.396
						c-0.074,0.588-0.958,0.363-1.587,0.396C169.902,167.771,169.107,167.771,168.314,167.771z"/>
					<path fill-rule="evenodd" clip-rule="evenodd" fill="#E2E0DF" d="M165.537,167.771c0.662,0,1.322,0,1.983,0
						c0.265,0,0.529,0,0.794,0c0.793,0,1.587,0,2.379,0C169.881,168.432,166.352,168.432,165.537,167.771z"/>
					<path fill-rule="evenodd" clip-rule="evenodd" fill="#BA3F29" d="M199.65,176.893c0-1.322,0-2.643,0-3.965
						C200.308,173.355,200.308,176.465,199.65,176.893z"/>
					<path fill-rule="evenodd" clip-rule="evenodd" fill="#BA3F29" d="M186.562,185.221c1.454,0,2.909,0,4.363,0
						c0.266,0,0.529,0,0.792,0C190.903,185.879,187.374,185.879,186.562,185.221z"/>
					<path fill-rule="evenodd" clip-rule="evenodd" fill="#E2E0DF" d="M217.104,282.383c-0.659-7.139-0.659-17.051,0-24.191
						C217.104,266.254,217.104,274.32,217.104,282.383z"/>
					<path fill-rule="evenodd" clip-rule="evenodd" fill="#DA9B89" d="M253.995,303.799c0.55-0.902,2.762-0.146,3.966-0.396
						C257.409,304.307,255.199,303.551,253.995,303.799z"/>
					<path fill-rule="evenodd" clip-rule="evenodd" fill="#E2E0DF" d="M259.943,142.787c5.066-1.51,13.394-0.798,18.644,0
						C272.097,142.631,265.147,142.043,259.943,142.787z"/>
					<path fill-rule="evenodd" clip-rule="evenodd" fill="#E2E0DF" d="M280.965,142.787c1.388,0.2,2.996,0.177,3.969,0.793
						C283.29,143.635,281.871,143.47,280.965,142.787z"/>
					<path fill-rule="evenodd" clip-rule="evenodd" fill="#E2E0DF" d="M268.275,108.68c1.535-2.165,3.499-3.904,5.55-5.552
						C272.14,105.145,270.291,106.996,268.275,108.68z"/>
					<path fill-rule="evenodd" clip-rule="evenodd" fill="#E2E0DF" d="M237.332,130.888c0.473-2.305,2.01-3.541,3.57-4.759
						C239.572,127.577,238.329,129.107,237.332,130.888z"/>
					<path fill-rule="evenodd" clip-rule="evenodd" fill="#E2E0DF" d="M242.094,145.96c1.603,1.314,4.808-1.191,5.95,0.791
						C246.506,145.373,243.037,148.142,242.094,145.96z"/>
					<path fill-rule="evenodd" clip-rule="evenodd" fill="#F05A28" d="M180.61,180.463c-4.308-8.105,1.803-17.777,11.503-15.467
						c6.082,1.338,9.564,10.99,4.762,16.258c-0.77,1.215-2.374,1.596-3.174,2.777c2.222-0.158,2.921-1.84,3.967-3.174
						c1.012-0.969,1.356-2.609,1.982-3.965c0.657-0.428,0.657-3.537,0-3.965c-0.204-1.924-2.124-4.207-1.982-5.156
						c4.36-1.061,8.608-2.232,13.09-3.174c-0.459,3.307,2.567,5,2.38,6.744c-4.312,1.9-8.913,3.514-12.296,6.344
						c2.771,11.242,5.109,22.916,7.932,34.107c-2.858,2.561-6,4.84-9.521,6.742c-3.188-1.703-7.029-2.756-10.311-4.363
						c-1.854-6.332-4.608-12.6-7.141-19.432c-3.303-8.916-8.582-18.543-5.95-27.764c-0.988,0.336-2.125,0.52-3.57,0.398
						c-1.205,0.248-3.416-0.508-3.966,0.396c-0.265,0-0.529,0-0.794,0c-0.678-0.908-3.026-0.145-4.361-0.396
						c-22.358-2.266-39.828-17.734-39.668-40.453c0.196-27.859,25.8-45.17,51.169-47.589c2.116,0,4.232,0,6.347,0
						c4.444,0.977,9.607,1.235,12.694,3.568c-2.7,1.399-5.602,2.597-7.933,4.364c0,0.396,0,0.792,0,1.188
						c-0.86-0.065-0.179,1.409-0.396,1.985c-0.658,0.427-0.658,3.537,0,3.964c0.235,0.821-0.491,2.605,0.396,2.777
						c0.924,10.724,2.828,19.228,6.742,30.139c1.954,5.446,7.208,19.898,13.091,20.624c3.188,0.393,5.767-2.983,9.123-2.38
						c-4.451,9.164-14.129,13.106-23.007,17.846c0.316,0.045,1.202,1.311,0.397,1.189c-9.889-2.68-16.713,7.57-11.899,15.865
						c1.57,2.133,3.554,3.85,6.348,4.758c0.812,0.658,4.341,0.658,5.155,0c0.103-0.822,1.744-0.107,1.984-0.793
						c-0.552-1.031-2.052,0.289-2.776,0.396C185.464,185.393,183.182,182.781,180.61,180.463z M154.431,97.179
						c-12.823,2.645-19.552,11.386-21.419,24.985c-0.661,1.205-0.661,5.14,0,6.345c0.812,5.93,2.162,11.322,5.157,15.071
						c-2.211-4.798-4.036-9.979-4.761-16.262c0-1.321,0-2.643,0-3.964c0.618-18.502,16.853-30.176,34.907-23.795
						c-2.435-1.134-5.29-1.849-8.331-2.38C159.042,96.52,155.375,96.52,154.431,97.179z M142.135,149.132
						c-1.165-2.01-2.465-3.881-3.966-5.552C138.887,146.032,140.36,147.733,142.135,149.132z M145.307,152.305
						c-0.835-1.278-1.893-2.336-3.172-3.173C142.699,150.681,143.758,151.739,145.307,152.305z M162.762,159.443
						c28.567-0.369,30.72-46.814,9.519-56.712c19.959,11.651,18.355,53.089-7.141,55.919c-9.438,1.048-14.475-3.561-19.833-5.949
						C150.24,156.202,155.031,159.544,162.762,159.443z M168.314,100.35c1.377,0.226,2.95,2.321,3.966,1.589
						C171.067,101.55,169.592,99.358,168.314,100.35z M161.968,114.233c-0.725-1.259-2.186-1.781-3.57-2.38
						c0.187,2.062,2.35,2.145,3.57,3.173c0.979,1.664,2.883,2.404,3.569,4.361c-8.147,3.751-16.034,7.765-24.196,11.5
						c0.06,1.261,0.9,1.745,0.794,3.173c9.057-0.859,17.988-1.844,27.37-2.379c0.328,4.384-3.463,8.576-2.379,11.104
						c1.469-2.495,2.677-5.254,3.172-8.726c1.124,0.065-0.331-2.445,0.792-2.379c0.698-0.229,2.331,0.478,2.381-0.398
						c1.232-1.015,4.716,0.224,5.95-0.791c-0.307-1.544-0.455-3.248-1.586-3.966c-2.297,0.61-5.11,0.708-7.933,0.792
						c-0.218-0.576,0.462-2.049-0.397-1.981c0.106-1.43-0.732-1.912-0.793-3.173c2.956-0.614,4.747-2.393,7.538-3.173
						c-0.17-1.418-1.058-2.116-0.794-3.965c-3.607,0.49-5.507,2.689-8.727,3.568C165.075,117.207,164.228,115.013,161.968,114.233z"
						/>
					<path fill-rule="evenodd" clip-rule="evenodd" fill="#E2E0DF" d="M315.078,93.61c1.75,1.556,3.647,2.964,4.762,5.156
						C318.338,96.962,316.536,95.458,315.078,93.61z"/>
					<path fill-rule="evenodd" clip-rule="evenodd" fill="#E2E0DF" d="M304.37,88.85c-1.22,0.295-0.761-1.089-1.98-0.793
						c0.528-0.633,3.271-0.125,3.567,0.793C305.714,88.734,304.43,87.865,304.37,88.85z"/>
					<path fill-rule="evenodd" clip-rule="evenodd" fill="#E2E0DF" d="M238.129,141.596c0.646,1.864,2.078,2.943,3.17,4.364
						c-1.307,0.891-3.24,0.757-4.757,0c1.204-0.251,3.417,0.507,3.963-0.398c-1.39-0.856-2.31-2.185-3.173-3.568
						C237.794,142.057,238.04,141.906,238.129,141.596z"/>
					<path fill-rule="evenodd" clip-rule="evenodd" fill="#FFFFFF" d="M236.938,135.648c0.526,1.853,0.714,4.045,1.191,5.948
						c-0.089,0.31-0.335,0.461-0.797,0.398c-0.607-1.903-1.467-3.558-1.188-6.346C236.408,135.648,236.673,135.648,236.938,135.648z
						"/>
					<path fill-rule="evenodd" clip-rule="evenodd" fill="#E2E0DF" d="M237.332,131.683c-0.408,1.043-0.472,2.433-0.395,3.965
						c-0.265,0-0.529,0-0.793,0c-0.89-0.915,0.04-3.375,0.397-4.364c0.061,0.468-0.07,1.127,0.396,1.191
						C237.028,132.167,236.948,131.693,237.332,131.683z"/>
					<path fill-rule="evenodd" clip-rule="evenodd" fill="#3999D5" d="M316.667,123.75c-0.277,6.198-2.291,10.663-4.364,15.071
						c3.427-15.949-0.642-36.097-12.295-42.04c9.397,1.842,15.882,10.032,16.659,21.812
						C316.667,120.312,316.667,122.032,316.667,123.75z"/>
					<path fill-rule="evenodd" clip-rule="evenodd" fill="#DA9B89" d="M142.135,149.132c1.28,0.837,2.337,1.895,3.172,3.173
						C143.758,151.739,142.699,150.681,142.135,149.132z"/>
					<path fill-rule="evenodd" clip-rule="evenodd" fill="#DA9B89" d="M138.169,143.58c1.5,1.67,2.801,3.542,3.966,5.552
						C140.36,147.733,138.887,146.032,138.169,143.58z"/>
					<path fill-rule="evenodd" clip-rule="evenodd" fill="#DA9B89" d="M172.281,101.939c-1.017,0.732-2.589-1.363-3.966-1.589
						C169.592,99.358,171.067,101.55,172.281,101.939z"/>
					<path fill-rule="evenodd" clip-rule="evenodd" fill="#DA9B89" d="M145.307,152.702c5.358,2.388,10.396,6.997,19.833,5.949
						c25.496-2.831,27.1-44.268,7.141-55.919c21.201,9.897,19.048,56.343-9.519,56.712
						C155.031,159.544,150.24,156.202,145.307,152.702z"/>
					<path fill-rule="evenodd" clip-rule="evenodd" fill="#FFFFFF" d="M260.341,139.614c-5.069-0.276-8.796-10.051-6.744-15.071
						c3.208-7.842,19.685-13.283,22.213-19.829c1.167,0.685-0.375,4.076,0.793,4.758c1.678,13.129,5.662,23.955,11.901,32.522
						c-2.458,0.467-5.747-1.652-9.123-1.589c-0.97-1.145-3.521-0.712-5.556-0.791c-2.112,0-4.229,0-6.345,0
						C265.101,139.614,262.721,139.614,260.341,139.614z"/>
					<path fill-rule="evenodd" clip-rule="evenodd" fill="#E2E0DF" d="M273.825,139.614c2.034,0.079,4.586-0.354,5.556,0.791
						C277.751,139.919,275.207,140.354,273.825,139.614z"/>
					<path fill-rule="evenodd" clip-rule="evenodd" fill="#BA3F29" d="M170.298,131.683c0.576-0.613,2.031-0.35,3.173-0.398
						c-0.05,0.876-1.684,0.169-2.381,0.398c-1.123-0.066,0.332,2.444-0.792,2.379C170.298,133.268,170.298,132.475,170.298,131.683z
						"/>
					<path fill-rule="evenodd" clip-rule="evenodd" fill="#FFFFFF" d="M287.313,137.631c-4.389-6.847-6.202-16.274-8.331-25.381
						C286.454,115.835,288.791,126.392,287.313,137.631z"/>
					<path fill-rule="evenodd" clip-rule="evenodd" fill="#E2E0DF" d="M161.968,115.026c-1.22-1.028-3.383-1.112-3.57-3.173
						c1.384,0.599,2.845,1.121,3.57,2.38C161.391,114.408,162.008,114.581,161.968,115.026z"/>
					<path fill-rule="evenodd" clip-rule="evenodd" fill="#FFFFFF" d="M161.968,115.026c0.04-0.445-0.577-0.619,0-0.793
						c2.26,0.78,3.107,2.974,4.76,4.361c3.219-0.879,5.12-3.078,8.727-3.568c-0.264,1.849,0.624,2.547,0.794,3.965
						c-2.791,0.78-4.582,2.559-7.538,3.173c-0.536,0.962-0.793,0.248-1.19,0.792c-4.124,1.829-7.85,4.05-12.296,5.553
						c3.378-0.187,9.986,0.421,13.486-0.793c0.435-0.15,0.357-0.656,0.396-1.189c-0.033-0.563-0.065-1.125,0.397-1.19
						c0.86-0.068,0.18,1.406,0.397,1.981c2.823-0.084,5.635-0.182,7.933-0.792c1.132,0.719,1.28,2.422,1.586,3.966
						c-1.233,1.015-4.717-0.224-5.95,0.791c-1.143,0.049-2.598-0.215-3.173,0.398c-0.264,0-0.529,0-0.793,0
						c-9.381,0.535-18.313,1.52-27.37,2.379c0.106-1.428-0.734-1.912-0.794-3.173c8.162-3.735,16.049-7.749,24.196-11.5
						C164.851,117.431,162.947,116.69,161.968,115.026z"/>
					<path fill-rule="evenodd" clip-rule="evenodd" fill="#E2E0DF" d="M167.521,122.956c0.397-0.544,0.654,0.17,1.19-0.792
						c0.061,1.261,0.899,1.743,0.793,3.173c-0.462,0.065-0.43,0.627-0.397,1.19C168.072,125.842,168.687,123.51,167.521,122.956z"/>
					<path fill-rule="evenodd" clip-rule="evenodd" fill="#E2E0DF" d="M170.298,134.062c-0.495,3.471-1.703,6.23-3.172,8.726
						c-1.084-2.529,2.707-6.72,2.379-11.104c0.264,0,0.529,0,0.793,0C170.298,132.475,170.298,133.268,170.298,134.062z"/>
					<path fill-rule="evenodd" clip-rule="evenodd" fill="#FFFFFF" d="M230.589,135.648c-0.287-1.083,0.79-0.797,0.796-1.586
						c0.35,4.013,1.266,7.458,2.777,10.311c-1.933-0.713-2.785-2.505-3.175-4.758C230.738,138.409,231.495,136.197,230.589,135.648z
						"/>
					<path fill-rule="evenodd" clip-rule="evenodd" fill="#DA9B89" d="M224.641,165.787c0.332-2.711-0.54-4.217-1.589-5.551
						c0.4-0.001,0.475,0.321,0.796,0.397c1.388,0.861,1.55,2.945,1.584,5.154C225.167,165.787,224.905,165.787,224.641,165.787z"/>
					<path fill-rule="evenodd" clip-rule="evenodd" fill="#E2E0DF" d="M180.61,180.463c2.572,2.318,4.854,4.93,10.314,4.361
						c0,0.133,0,0.266,0,0.396c-1.454,0-2.909,0-4.363,0c-2.794-0.908-4.778-2.625-6.348-4.758
						C180.347,180.463,180.478,180.463,180.61,180.463z"/>
					<path fill-rule="evenodd" clip-rule="evenodd" fill="#DA9B89" d="M180.214,180.463c-4.814-8.295,2.011-18.545,11.899-15.865
						c0,0.133,0,0.266,0,0.398c-9.701-2.311-15.811,7.361-11.503,15.467C180.478,180.463,180.347,180.463,180.214,180.463z"/>
					<path fill-rule="evenodd" clip-rule="evenodd" fill="#DA9B89" d="M213.138,171.342c0.188-1.744-2.839-3.438-2.38-6.744
						c0.521-0.004,0.362-0.693,0.793-0.793c-0.427,3.467,1.024,5.059,2.378,6.744C213.848,170.992,213.49,171.164,213.138,171.342z"
						/>
					<path fill-rule="evenodd" clip-rule="evenodd" fill="#DA9B89" d="M197.668,180.857c-1.046,1.334-1.746,3.016-3.967,3.174
						c0.8-1.182,2.405-1.562,3.174-2.777C197.271,181.258,197.346,180.934,197.668,180.857z"/>
					<path fill-rule="evenodd" clip-rule="evenodd" fill="#E2E0DF" d="M165.537,264.934c0.704-1.543,2.294-2.201,3.57-3.172
						c-0.433,1.682-2.564,1.666-3.173,3.172C165.802,264.934,165.67,264.934,165.537,264.934z"/>
					<path fill-rule="evenodd" clip-rule="evenodd" fill="#DA9B89" d="M248.044,293.486c2.168-3.117,3.21-7.363,6.345-9.518
						c-0.075,0.322-0.394,0.398-0.394,0.795c-1.854,2.51-3.657,5.072-4.762,8.326c-1.365,1.941-2.127,4.488-3.173,6.744
						C245.316,299.379,247.777,295.549,248.044,293.486z"/>
					<path fill-rule="evenodd" clip-rule="evenodd" fill="#F05A28" d="M270.655,295.471c1.328,1.578,3.227,1.748,3.17,3.967
						c-0.133,5.262-11.03,2.436-15.864,3.965c-1.204,0.25-3.416-0.506-3.966,0.396c-3.033-0.121-5.756,0.064-8.333,0.398
						c-0.396,0-0.791,0-1.188,0c-0.065-1.256,1.056-1.324,0.793-2.775c-0.564,0.756-0.922,1.721-1.19,2.775
						c-2.908,0-5.817,0-8.723,0c-1.085-4.604-4.191-7.184-6.349-10.711c5.071,0.418,14.62-3.611,19.039,0
						c-0.267,2.062-2.728,5.893-1.983,6.348c1.046-2.256,1.808-4.803,3.173-6.744"/>
					<path fill-rule="evenodd" clip-rule="evenodd" fill="#F05A28" d="M169.107,261.762c4.038-2.307,6.908-5.783,10.709-8.328
						c-0.264-8.195,3.576-12.291,10.71-13.088c0.13-8.631,3.102-17.041-0.397-23.795c3.85,0.777,6.889,2.367,9.919,3.967
						c3.023-2,6.284-3.764,9.123-5.949c6.227,7.787,12.077,15.949,17.849,24.191c2.758,1.146,4.678,2.186,5.95,3.967
						c2.12,2.963,0.843,5.697,1.587,9.516c0.458,2.363,3.367,5.211,5.154,7.934c5.017,7.629,9.912,16.385,15.074,23.002
						c0.062,0.459-0.086,0.707-0.397,0.791c-3.135,2.154-4.177,6.4-6.345,9.518c-4.42,0.662-13.968,0.418-19.039,0
						c-3.144-2.541-5.585-5.781-8.729-8.326c-1.299-0.684-1.871-2.092-3.173-2.777c0-8.062,0-16.129,0-24.191
						c-3.159-2.35-5.689-7.891-3.57-13.086c-1.338-2.893-4.253-4.207-6.346-6.346c-5.849,6.842-3.656,21.725-14.28,23.795
						c-1.304,6.611-0.495,13.115-2.381,18.244c-1.755,4.777-6.363,7.154-8.329,11.104c-0.176,0.352-0.348,0.709-0.793,0.793
						c-1.495,0.479-9.668,5.701-9.654,7.43c-0.785-2.293-2.185-7.367-8.196-7.43c-1.395-2.703-2.228-5.969-3.57-8.727
						c-1.076-3.68-2.563-6.951-3.57-10.707c2.28-3.537,6.312-5.324,9.124-8.328c0.133,0,0.265,0,0.397,0
						C166.543,263.428,168.675,263.443,169.107,261.762z"/>
					<path fill-rule="evenodd" clip-rule="evenodd" fill="#DA9B89" d="M221.072,286.35c-0.143-0.521-0.701-0.623-0.796-1.189
						c3.144,2.545,5.585,5.785,8.729,8.326c2.157,3.527,5.264,6.107,6.349,10.711c2.905,0,5.814,0,8.723,0
						c0.269-1.055,0.626-2.02,1.19-2.775c0.263,1.451-0.858,1.52-0.793,2.775c0.397,0,0.793,0,1.188,0
						c-3.044,0.66-8.852,0.66-11.897,0c0.397,0,0.793,0,1.188,0c-1.397-4.816-4.33-8.098-7.537-11.107
						C225.536,290.613,222.952,288.83,221.072,286.35z"/>
					<path fill-rule="evenodd" clip-rule="evenodd" fill="#FFFFFF" d="M182.198,291.902c1.966-3.949,6.574-6.326,8.329-11.104
						c1.886-5.129,1.077-11.633,2.381-18.244c10.624-2.07,8.431-16.953,14.28-23.795c2.093,2.139,5.008,3.453,6.346,6.346
						c-2.119,5.195,0.411,10.736,3.57,13.086c-0.659,7.141-0.659,17.053,0,24.191c1.302,0.686,1.874,2.094,3.173,2.777
						c0.095,0.566,0.653,0.668,0.796,1.189c-1.27-0.846-2.366-1.865-3.573-2.773c-1.38,2.186-1.854,5.285-3.173,7.533
						c-0.131,0-0.264,0-0.397,0c-0.815,0.697-0.346,1.229-0.791,1.586c-3.1-1.072-5.469-0.395-7.139,0
						c1.046-1.785-1.69-0.609-3.175-2.379c-3.943-2.668-7.335-5.885-11.107-8.727c-3.927,2.551-5.66,7.295-9.123,10.312
						C182.461,291.902,182.33,291.902,182.198,291.902z"/>
					<path fill-rule="evenodd" clip-rule="evenodd" fill="#F05A28" d="M153.637,287.938c-1.304-2.295-4.584-3.254-4.759-5.555
						c-0.269-3.514,5.294-5.738,6.741-8.725c1.714,3.182,2.559,7.227,3.968,10.709c0.694,2.346,1.902,4.178,2.38,6.742
						c0,0.264,0,0.529,0,0.793c-0.814-0.455-1.891,0.623-0.794,0.793c-1.608-0.627-0.854,0.119-3.173-0.793
						C156.309,290.816,155.33,289.021,153.637,287.938z"/>
					<path fill-rule="evenodd" clip-rule="evenodd" fill="#F05A28" d="M158,291.902c2.319,0.912-1.234-5.779,0.375-5.152
						c-1.097-0.17,1.875,1.5,3.593,5.152c0-0.264,0-0.529,0-0.793c1.285,2.418,2.552,4.852,3.569,7.533
						c0.56-1.629-1.769-3.773-1.983-5.947c6.011,0.062,14.685-1.104,15.47,1.189c-0.014-1.729,0.885-0.711,2.38-1.189
						c-1.816,2.811-4.047,5.207-5.95,7.932c-9.096,1.979-11.137-3.52-15.867-7.141C159.208,292.809,158.271,292.689,158,291.902z"/>
					<path fill-rule="evenodd" clip-rule="evenodd" fill="#F05A28" d="M182.991,293.09"/>
					<path fill-rule="evenodd" clip-rule="evenodd" fill="#F05A28" d="M204.94,292.301c1.649,1.393,5.281,3.842,5.026,7.137
						c-0.751,0.043-0.277,1.311-1.192,1.189c-10.709,0-21.419,0-32.13,0c-0.132,0-0.263,0-0.395,0
						c1.691-3.197,5.145-6.857,7.273-9.619"/>
					<path fill-rule="evenodd" clip-rule="evenodd" fill="#F05A28" d="M198.75,289.875"/>
					<path fill-rule="evenodd" clip-rule="evenodd" fill="#F05A28" d="M186.912,286.667c-0.004,0.523,2.685-2.097,2.588-1.667"/>
					<path fill-rule="evenodd" clip-rule="evenodd" fill="#F05A28" d="M182.594,291.902c3.463-3.018,5.195-7.762,9.123-10.312
						c3.772,2.842,7.165,6.059,11.107,8.727c0.784,1.596,2.842,1.918,3.571,3.568c1.047,1.613-2.059-0.475-2.38-1.189
						c-0.087,1.527-0.253,0.756-0.795,1.586c-0.992,0.068-0.961-0.887-1.584-1.191c-0.31,0.348,0.149,1.758-1.586,1.588
						c0.097-0.43,0.789-0.27,0.793-0.793c-6.58-0.258-12.159-1.539-16.66-0.398c-0.491-1.281,1.283-0.301,0.792-1.584
						c-1.477-0.314-0.736,2.445-1.983,1.188c0.209,0.32,0.413,0.646,0.396,1.191c-1.333,0.408-0.618-1.232-0.794-1.98
						C182.594,292.166,182.594,292.033,182.594,291.902z"/>
					<path fill-rule="evenodd" clip-rule="evenodd" fill="#F05A28" d="M226.623,293.885c-0.384-0.012-0.306-0.484-0.396-0.795
						c-0.321,0.078-0.396,0.4-0.796,0.396c0.404,1.551,1.802,0.496,1.984-0.396c3.207,3.01,6.14,6.291,7.537,11.107
						c-0.396,0-0.791,0-1.188,0c-7.056-1.145-14.998-1.398-21.816-2.775c-0.578-3.525,0.945-6.504,2.378-9.121"/>
					<path fill-rule="evenodd" clip-rule="evenodd" fill="#F05A28" d="M217.104,293.486"/>
					<path fill-rule="evenodd" clip-rule="evenodd" fill="#E84524" d="M217.104,293.486"/>
					<path fill-rule="evenodd" clip-rule="evenodd" fill="#E84524" d="M223.271,293.574"/>
					<path fill-rule="evenodd" clip-rule="evenodd" fill="#E84524" d="M226.623,293.885"/>
					<path fill-rule="evenodd" clip-rule="evenodd" fill="#F05A28" d="M214.326,292.301c0-0.398,0-0.795,0-1.191
						c1.319-2.248,1.793-5.348,3.173-7.533c1.207,0.908,2.304,1.928,3.573,2.773c1.88,2.48,4.464,4.264,6.344,6.74
						c-0.183,0.893-1.263,2.563-1.667,1.013"/>
					<path fill-rule="evenodd" clip-rule="evenodd" fill="#F05A28" d="M249.233,293.09c1.104-3.254,2.908-5.816,4.762-8.326
						c2.086-0.756,5.559,2.102,8.726,4.363c3.297,2.354,5.548,4.742,7.935,5.947c0,0.135,0,0.266,0,0.396
						c0.497,0.461,0.906,2.588-0.796,1.982c-0.438-2.096,1.403-0.055,0.397-1.586c-4.957-0.387-16.689-2.236-20.628-0.793
						C250.401,294.34,249.904,293.473,249.233,293.09z"/>
					<path fill-rule="evenodd" clip-rule="evenodd" fill="#DA9B89" d="M154.431,97.179c1.852,0,3.703,0,5.553,0
						c3.041,0.531,5.896,1.246,8.331,2.38c-18.054-6.381-34.289,5.293-34.907,23.795c-0.133,0-0.263,0-0.396,0
						c0-0.398,0-0.793,0-1.19C134.878,108.565,141.607,99.824,154.431,97.179z"/>
					<path fill-rule="evenodd" clip-rule="evenodd" fill="#F05A28" d="M204.41,133.268c-5.845,1.941-8.876-7.826-4.759-11.104
						C205.845,121.291,207.401,129.743,204.41,133.268z"/>
					<path fill-rule="evenodd" clip-rule="evenodd" fill="#F05A28" d="M167.521,122.956c1.167,0.554,0.551,2.886,1.587,3.571
						c-0.039,0.533,0.038,1.039-0.396,1.189c-3.5,1.214-10.108,0.606-13.486,0.793C159.67,127.006,163.397,124.785,167.521,122.956z
						"/>
					<path fill-rule="evenodd" clip-rule="evenodd" fill="#DA9B89" d="M133.408,127.318c0.725,6.282,2.55,11.464,4.761,16.262
						c-2.996-3.749-4.345-9.141-5.157-15.071c0-0.396,0-0.793,0-1.191C133.145,127.318,133.275,127.318,133.408,127.318z"/>
					<path fill-rule="evenodd" clip-rule="evenodd" fill="#F05A28" d="M215.518,140.405c-0.68,0.911-2.235,0.939-3.569,1.191
						c-0.207-1.907-0.846-3.384-1.19-5.153c1.06-0.395,2.091-0.817,3.568-0.794C214.442,137.515,214.988,138.952,215.518,140.405z"
						/>
					<path fill-rule="evenodd" clip-rule="evenodd" fill="#F05A28" d="M220.276,158.65c1.607-0.152,1.826,1.082,2.775,1.585
						c1.049,1.334,1.921,2.84,1.589,5.551c-0.502,5.061-6.262,6.982-10.712,4.762c-1.354-1.686-2.805-3.277-2.378-6.744
						c0.445-2.857,2.048-4.563,4.76-5.154C217.636,158.65,218.955,158.65,220.276,158.65z"/>
					<path fill-rule="evenodd" clip-rule="evenodd" fill="#3999D5" d="M256.375,161.824c4.061,1.738,6.813-0.264,9.917-1.588
						c-0.498,1.92,1.564,4.995,0.397,5.948C261.928,167.596,257.381,165.473,256.375,161.824z"/>
					<path fill-rule="evenodd" clip-rule="evenodd" fill="#DA9B89" d="M190.924,184.824c0.725-0.107,2.224-1.428,2.776-0.396
						c-0.241,0.686-1.881-0.029-1.984,0.793c-0.263,0-0.526,0-0.792,0C190.924,185.09,190.924,184.957,190.924,184.824z"/>
					<path fill-rule="evenodd" clip-rule="evenodd" fill="#DA9B89" d="M161.968,291.109c-0.478-2.564-1.686-4.396-2.38-6.742
						c0.337,0.072,0.375-0.156,0.396-0.398c1.342,2.758,2.175,6.023,3.57,8.727c0.214,2.174,2.543,4.318,1.983,5.947
						C164.52,295.961,163.252,293.527,161.968,291.109z"/>
					<path fill-rule="evenodd" clip-rule="evenodd" fill="#FFFFFF" d="M236.542,144.373c-3.042-1.52-4.73-9.355-1.984-11.897
						C232.998,136.927,236.53,141.52,236.542,144.373z"/>
					<path fill-rule="evenodd" clip-rule="evenodd" fill="#F05A28" d="M257.168,145.167c0.66,0,1.321,0,1.984,0
						c1.825,0.486,3.517-1.213,4.757,0c0.911,1.422,2.459,3.874,0.794,5.552c3.438,1.073,4.776,7.366,1.589,9.518
						c-3.104,1.325-5.856,3.327-9.917,1.588c-4.22-1.672-5.389,1.623-6.746,3.963c-3.039,0-6.082,0-9.124,0
						c-5.023,0-10.048,0-15.073,0c-0.034-2.209-0.196-4.293-1.584-5.154c-1.482-1.993,1.078-2.876,2.775-3.967
						c5.028-3.227,12.203-6.658,16.662-8.327c3.046,0.159,4.755,1.542,5.553-1.588c1.032-1.08,3.444-0.784,5.551-0.791
						C255.292,145.669,257.487,146.674,257.168,145.167z"/>
					<path fill-rule="evenodd" clip-rule="evenodd" fill="#E2E0DF" d="M185.372,90.438c0.216-0.576-0.465-2.05,0.396-1.985
						c0,2.91,0,5.818,0,8.726c-0.887-0.171-0.161-1.956-0.396-2.777C185.372,93.082,185.372,91.758,185.372,90.438z"/>
					<path fill-rule="evenodd" clip-rule="evenodd" fill="#F05A28" d="M254.389,145.96c-0.317-1.509,1.878-0.506,2.779-0.793
						C257.487,146.674,255.292,145.669,254.389,145.96z"/>
				</g>
			</g>
		</g>
	</g>
	<g id="layer1_1_" transform="translate(0,-1006.3622)">
		<path id="rect4059-0-9-4" fill="#FFFFFF" d="M195.422,1053.154h30.769c0.538,0,0.973,0.411,0.973,0.917v0.311
			c0,0.506-0.435,0.917-0.973,0.917h-30.769c-0.537,0-0.971-0.41-0.971-0.917v-0.311
			C194.451,1053.564,194.885,1053.154,195.422,1053.154z"/>
		<g id="g4242" transform="matrix(1.0226163,0,0,1.0226163,-0.63037448,1005.6283)">
			<path id="rect4059" fill="#FFFFFF" d="M204.04,19.213c-0.682,0-1.225,0.527-1.225,1.164c0,7.842,0,17.118,0,24.96h7.894
				c0-7.842,0-17.118,0-24.96c0-0.637-0.564-1.164-1.245-1.164H204.04z"/>
			<path id="rect4059-3" fill="#FFFFFF" d="M194.026,29.428c-0.682,0-1.225,0.564-1.225,1.248c0,6.868,0,7.793,0,14.661h7.892
				c0-6.868,0-7.793,0-14.661c0-0.684-0.563-1.248-1.245-1.248H194.026z"/>
			<path id="rect4059-3-0" fill="#FFFFFF" d="M214.055,22.74c-0.682,0-1.225,0.565-1.225,1.248c0,6.869,0,14.481,0,21.349h7.893
				c0-6.868,0-14.48,0-21.349c0-0.683-0.564-1.248-1.246-1.248H214.055z"/>
		</g>
	</g>
	<g id="layer1_2_" transform="translate(0,-1006.3622)">
		<g id="g4347" transform="matrix(0.97468262,0,0,0.97468262,-0.25943401,24.914126)">
			<path id="rect3807" fill="#3B98D3" stroke="#FFFFFF" stroke-linecap="round" stroke-linejoin="bevel" d="M100.514,1244.715
				c0,0-0.141,1.742-0.472,2.318c-0.33,0.575-1.382,1.131-1.268,1.545c0.374,0.516,1.392,0.955,1.392,0.955
				c2.006,0,8.787,0,10.792,0c0,0,1.018-0.439,1.393-0.955c0.113-0.414-0.939-0.97-1.268-1.545
				c-0.331-0.575-0.448-2.318-0.448-2.318H100.514z"/>
			<path id="rect3031" fill="#3B98D3" stroke="#FFFFFF" stroke-width="0.9544" stroke-linecap="round" stroke-linejoin="bevel" d="
				M91.969,1217.129h27.186c1.277,0,2.313,1.035,2.313,2.312v22.908c0,1.277-1.035,2.313-2.313,2.313H91.969
				c-1.277,0-2.313-1.036-2.313-2.313v-22.908C89.656,1218.164,90.692,1217.129,91.969,1217.129z"/>
			<path id="rect3803" fill="#3B98D3" stroke="#FFFFFF" stroke-width="1.9243" d="M93.691,1221.121h23.743
				c0.693,0,1.253,0.561,1.253,1.253v14.952c0,0.692-0.56,1.254-1.253,1.254H93.691c-0.693,0-1.254-0.562-1.254-1.254v-14.952
				C92.437,1221.682,92.998,1221.121,93.691,1221.121z"/>
		</g>
	</g>
	<g id="layer1_3_" transform="translate(0,-1006.3622)">
		<g id="g4383" transform="matrix(0.96437951,0,0,0.96437951,0.73404338,1007.9562)">
			<g id="g4339" transform="translate(0.13529412,0.06764706)">
				<path id="rect4303" fill="#FFFFFF" stroke="#3B98D3" stroke-width="1.9552" stroke-linecap="round" d="M313.789,215.123
					c-2.219,0-4.005,1.882-4.005,4.224v16.418c0,2.34,1.786,4.224,4.005,4.224h16.985c0.152,1.928,1.688,3.441,3.555,3.441
					s3.378-1.513,3.528-3.441h3.759c2.22,0,4.005-1.883,4.005-4.224v-16.418c0-2.341-1.785-4.224-4.005-4.224H313.789z"/>
				<rect id="rect4305" x="312.783" y="218.354" fill="#3B98D3" width="29.853" height="18.397"/>
				<g id="g4332">
					<path id="path4283" fill="#3B98D3" stroke="#FFFFFF" d="M330.408,245.045c0.001,1.788-1.449,3.239-3.238,3.239
						c-1.788,0.001-3.239-1.448-3.239-3.237v-0.002c0-1.79,1.449-3.239,3.237-3.239c1.789-0.001,3.239,1.448,3.24,3.237
						C330.408,245.043,330.408,245.044,330.408,245.045z"/>
					<path id="path4283-3" fill="#3B98D3" stroke="#FFFFFF" d="M323.617,249.004c0,1.182-0.957,2.14-2.139,2.14
						c-1.181,0-2.139-0.957-2.139-2.139c0,0,0,0,0-0.001c0-1.182,0.957-2.139,2.138-2.139c1.181,0,2.139,0.956,2.14,2.138
						C323.617,249.003,323.617,249.003,323.617,249.004z"/>
				</g>
			</g>
		</g>
	</g>
</g>
</svg>
